<?xml version="1.0" encoding="UTF-8"?>
<svg id="Layer_1" xmlns="http://www.w3.org/2000/svg" viewBox="0 0 402 396">
  <path d="M25.27,197.93c.27-97.45,79.1-176.22,176.16-176.03,96.48.19,175.65,79.78,175.31,176.22-.35,98.14-79.38,176.41-177.7,175.98-95.39-.41-174.03-80.14-173.76-176.17ZM201.19,53.97c-79.32,0-143.88,64.38-143.94,143.55-.06,79.77,64.12,144.5,143.33,144.55,79.58.05,144.05-64.42,144.16-144.15.11-79.18-64.47-143.94-143.54-143.95Z"/>
  <path d="M178.7,198.47c-1.6-1.68-2.51-2.67-3.47-3.63-13.93-13.98-27.89-27.92-41.8-41.93-4.48-4.51-6.21-9.9-4.37-16.13,1.78-6.04,5.87-9.81,11.96-11.17,5.98-1.34,11.02.67,15.29,4.95,13.84,13.89,27.7,27.77,41.55,41.64.95.96,1.95,1.87,3.12,2.98,1.13-1.05,2.13-1.94,3.08-2.88,13.85-13.88,27.65-27.81,41.57-41.63,7.85-7.79,19.46-6.77,25.2,2.04,4.34,6.65,3.35,14.55-2.84,20.8-13.45,13.58-26.96,27.09-40.5,40.57-1.22,1.21-2.81,2.04-4.4,3.17,1.79,1.91,2.69,2.91,3.64,3.86,13.76,13.8,27.5,27.61,41.29,41.37,4.25,4.25,6.5,9.2,5.32,15.23-2.4,12.3-16.71,17.21-26.22,9.06-.95-.81-1.81-1.72-2.69-2.61-13.41-13.44-26.81-26.88-40.23-40.32-.96-.96-1.95-1.88-3.15-3.03-1.1,1.03-2.1,1.91-3.05,2.86-13.95,13.96-27.87,27.95-41.83,41.9-4.6,4.6-10.06,6.41-16.41,4.48-6.01-1.82-9.72-5.99-11.03-12.09-1.28-6.01.82-11.02,5.09-15.28,13.78-13.77,27.52-27.59,41.31-41.36.97-.97,2.14-1.73,3.58-2.86Z"/>
</svg>