<svg width="112" height="112" viewBox="0 0 112 112" fill="none" xmlns="http://www.w3.org/2000/svg">
<path d="M7.51562 43.9384C7.6384 41.7261 7.7286 39.5087 7.89146 37.2988C8.15706 33.6827 8.16207 30.0339 9.19938 26.5081C11.8528 17.4828 19.9283 10.9914 29.2917 10.2531C38.129 9.55746 46.9737 9.78849 55.8159 9.9693C60.0404 10.0547 64.2498 10.5167 68.0883 12.5533C75.6602 16.5713 79.9197 22.8418 80.6814 31.4075C80.9921 34.9006 81.1249 38.4088 81.3204 41.9094C81.4732 44.6315 79.6692 46.751 77.0884 46.9167C74.6254 47.075 72.5583 45.2342 72.3629 42.5975C72.0998 39.0366 71.9645 35.4681 71.6864 31.9097C71.1577 25.142 65.8934 19.7228 59.0933 19.3261C52.8894 18.9619 46.663 18.9971 40.4491 18.859C40.3364 18.859 40.2236 18.9017 39.9054 18.9619C40.3564 19.1905 40.6471 19.3311 40.9327 19.4818C43.5836 20.8755 46.3899 22.0407 48.8504 23.7182C53.1951 26.6814 55.6405 31.1338 57.412 35.9804C58.6498 39.368 59.0807 42.9013 59.2737 46.4773C59.9126 58.3754 59.875 70.276 59.4566 82.1767C59.424 83.1384 59.3639 84.0977 59.3137 85.1424C61.9221 84.939 64.1546 84.0425 66.1365 82.5584C69.4388 80.0823 71.2905 76.7575 71.6989 72.634C71.764 71.9811 71.7891 71.3132 71.9319 70.6778C72.4531 68.37 74.6304 66.921 77.0233 67.2525C79.1781 67.5489 80.9245 69.5854 80.8092 71.8204C80.3783 80.125 76.7727 86.6215 69.6844 91.0513C66.5524 93.0075 63.0797 93.9919 59.4115 94.2631C58.7801 94.3108 58.6297 94.5519 58.5044 95.1445C58.2013 96.5784 57.8806 98.0299 57.3469 99.386C56.1041 102.545 54.0946 105.001 50.6669 105.97H47.8532C45.9038 105.423 43.9344 104.941 42.0126 104.315C34.0198 101.711 26.5506 97.9496 19.312 93.7307C17.8011 92.8493 16.4255 91.6188 15.2303 90.323C11.6198 86.4106 9.84833 81.5865 8.82856 76.4511C7.89146 71.73 7.90149 66.9286 7.66095 62.1472C7.63589 61.6525 7.56824 61.1578 7.51813 60.6656C7.51813 55.0882 7.51813 49.5108 7.51813 43.9359L7.51562 43.9384ZM50.9376 67.9808C50.6745 59.739 50.479 53.2274 50.2585 46.7184C50.1157 42.492 49.2037 38.469 46.9587 34.8278C45.9665 33.2206 44.8665 31.6963 43.1852 30.727C39.026 28.3313 34.6838 26.365 30.0083 25.2224C27.0868 24.5092 24.1478 23.9467 21.1085 24.3636C20.4345 24.4565 19.8958 24.6875 19.6176 25.3153C18.9386 26.8497 17.9439 28.3438 17.6933 29.9485C17.1647 33.3411 16.9041 36.789 16.7588 40.2244C16.3729 49.335 16.4155 58.4482 16.9141 67.5589C17.1271 71.4638 17.8512 75.2533 19.3295 78.8845C20.898 82.7392 23.2107 85.9359 27.0542 87.8269C29.7979 89.1779 32.4763 90.6671 35.255 91.9377C39.3717 93.8186 43.5435 95.5765 47.9634 96.6563C48.5171 96.7919 48.8103 96.6965 48.9481 96.1792C49.2212 95.1546 49.6422 94.135 49.6973 93.0979C50.1759 84.1555 50.5868 75.2106 50.9376 67.9833V67.9808Z" fill="#EC6868"/>
<path d="M89.4994 61.9216C89.1587 61.9216 88.8179 61.9216 88.4772 61.9216C82.1656 61.9216 75.8515 61.9291 69.5399 61.9165C66.8865 61.9115 65.1 60.5329 64.6314 58.1874C64.1353 55.7063 65.9895 53.1851 68.5051 52.9364C68.9085 52.8963 69.3169 52.8988 69.7228 52.8988C75.9717 52.8988 82.2232 52.8988 88.4721 52.8988H89.6698C89.3691 52.5522 89.2088 52.3438 89.0234 52.1605C87.5902 50.719 86.1394 49.2927 84.7213 47.8362C82.8496 45.9101 82.802 43.1553 84.581 41.3573C86.41 39.5115 89.1587 39.5517 91.1055 41.4903C94.4079 44.7775 97.7078 48.0722 100.983 51.387C104.425 54.8726 104.468 59.9076 101.05 63.4107C97.7729 66.7682 94.448 70.078 91.1105 73.3777C89.2113 75.2561 86.4401 75.2486 84.6486 73.4304C82.8546 71.6098 82.9022 68.8851 84.8015 66.9616C86.3975 65.3468 88.0312 63.7673 89.6498 62.1727C89.5997 62.0873 89.5495 62.0044 89.4994 61.919V61.9216Z" fill="#EC6868"/>
</svg>
