<?xml version="1.0" encoding="UTF-8"?>
<svg id="Layer_1" xmlns="http://www.w3.org/2000/svg" viewBox="0 0 430.99 436.55">
  <path d="M264.7,403.64H86.55c-.32-.18-.63-.44-.97-.52-19.2-4.44-29.66-17.49-29.66-37.12,0-70.75-.01-141.49,0-212.24,0-22.71,14.79-37.6,37.39-37.69,3.45-.01,6.9,0,10.7,0,0-4.26-.05-7.99,0-11.72.31-21.47,15.33-36.42,36.73-36.57,3.7-.03,7.4,0,11.55,0,0-5.08-.17-9.68.03-14.26.54-12.4,6.15-22.06,16.67-28.46,4.05-2.46,8.88-3.65,13.35-5.42,28.19,0,56.39,0,84.58,0,.44.2.87.52,1.33.58,16.49,2.05,30.21,9.46,41.85,21.23,19.76,19.97,39.61,39.84,59.53,59.66,14.48,14.41,21.54,31.76,21.51,52.16-.05,38.74,0,77.49-.02,116.23,0,22.89-14.8,37.66-37.74,37.72-3.33,0-6.66,0-10.35,0,0,4.23.05,7.96,0,11.69-.32,21.49-15.32,36.42-36.72,36.59-3.7.03-7.4,0-11.54,0,0,4.94.13,9.42-.02,13.88-.53,15.75-10.69,28.64-25.86,32.95-1.41.4-2.79.87-4.19,1.3ZM174.69,163.48c0,35.49,0,70.98,0,106.47,0,9.9,4.79,14.75,14.66,14.75,54.88.02,109.76.02,164.63,0,9.77,0,14.69-5.01,14.69-14.81.01-38.86.01-77.73,0-116.59,0-9.75-4.97-14.7-14.78-14.73-14.47-.03-28.94.04-43.4-.05-3.35-.02-6.78-.13-10.03-.84-16.98-3.68-27.96-17.72-28.07-35.79-.09-15,0-29.99-.03-44.99-.02-9.9-4.85-14.76-14.65-14.77-22.45,0-44.9,0-67.35,0-11.17,0-15.67,4.49-15.67,15.62,0,35.24,0,70.48,0,105.72ZM152.23,90.27c-3.78,0-6.89,0-10.01,0-11,0-15.75,4.73-15.75,15.71,0,70.37,0,140.74,0,211.11,0,11.21,4.71,15.9,15.96,15.9,54.14,0,108.28,0,162.42,0,1.25,0,2.5.05,3.74-.08,5.78-.61,10.72-4.35,11.38-9.73.63-5.11.14-10.36.14-15.97h-4.81c-41.67,0-83.33.05-125-.07-4.44-.01-9.05-.39-13.27-1.66-15.57-4.67-24.78-17.94-24.79-35.21-.04-58.25-.01-116.49-.01-174.74,0-1.59,0-3.18,0-5.26ZM104.02,138.56c-3.84,0-7.18-.01-10.51,0-10.33.04-15.13,4.82-15.13,15.12,0,70.72,0,141.44,0,212.16,0,10.49,4.83,15.29,15.36,15.29,54.5,0,108.99,0,163.49,0,1.12,0,2.25.04,3.37-.05,5.37-.44,10.54-4.21,11.23-9.42.69-5.21.15-10.59.15-16.16h-4.6c-41.78,0-83.55.06-125.33-.08-4.55-.02-9.28-.54-13.6-1.89-15.36-4.78-24.41-18.16-24.42-35.54-.03-57.98-.01-115.95-.01-173.93,0-1.61,0-3.22,0-5.5ZM294.83,58.84c0,1.4,0,2.48,0,3.56,0,12.87-.01,25.74,0,38.6.02,10,4.96,15.01,14.9,15.04,12.97.04,25.93.02,38.9,0,1.05,0,2.1-.15,3.06-.22-18.91-18.95-37.66-37.74-56.87-56.99Z"/>
  <path d="M259.7,227.35c4.91-7.38,9.6-14.42,14.29-21.46,7.88-11.84,15.78-23.66,23.62-35.52,2.34-3.54,5.32-5.91,9.71-6.04,8.23-.24,13.82,7.88,10.65,15.51-.47,1.14-1.14,2.21-1.83,3.25-15.46,23.27-30.93,46.53-46.43,69.77-3.72,5.58-9.11,7.67-14.38,5.16-2.13-1.01-4.16-2.83-5.5-4.79-7.81-11.43-15.44-22.98-23.07-34.53-3.98-6.03-2.82-12.87,2.63-16.45,5.47-3.59,12.03-1.95,16.13,4.12,3.98,5.89,7.88,11.84,11.82,17.75.67,1.01,1.42,1.97,2.33,3.23Z"/>
</svg>