<svg width="118" height="120" viewBox="0 0 118 120" fill="none" xmlns="http://www.w3.org/2000/svg">
<path d="M7.22656 76.5095C7.6694 74.8198 8.77379 73.5956 9.9835 72.3929C29.6223 52.8512 49.2529 33.2987 68.8701 13.7328C72.3534 10.2593 76.5063 8.41082 81.437 8.4458C85.8626 8.4754 89.7807 9.97674 92.9615 13.0521C97.3845 17.3274 101.767 21.6512 106.041 26.0772C112.546 32.8171 112.309 43.2431 105.545 49.9938C88.9328 66.5732 72.2967 83.1283 55.6687 99.6915C52.6444 102.705 49.5959 105.697 46.604 108.743C45.3889 109.98 44.1225 111.086 42.4078 111.557H11.8764C9.48125 110.855 7.92052 109.321 7.22656 106.924V76.5095ZM18.6026 100.122C18.8997 100.162 19.059 100.203 19.221 100.205C25.6232 100.208 32.0228 100.219 38.425 100.184C38.83 100.184 39.3215 99.9068 39.6212 99.6108C58.8846 80.4485 78.1346 61.2727 97.3737 42.0888C100.055 39.4144 100.039 36.1238 97.3791 33.4628C93.48 29.5642 89.5727 25.6709 85.6601 21.7857C82.9356 19.079 79.6386 19.0682 76.933 21.7642C57.7046 40.9158 38.479 60.0646 19.2777 79.2404C18.9051 79.6117 18.6404 80.2709 18.635 80.7983C18.5864 85.6978 18.6053 90.5974 18.6053 95.4996C18.6053 97.0063 18.6053 98.5158 18.6053 100.122H18.6026Z" fill="#023E8A"/>
<path d="M68.8945 111.557C68.5543 111.428 68.2114 111.302 67.8712 111.172C65.3491 110.215 63.8721 107.685 64.261 104.987C64.6309 102.42 66.8586 100.402 69.5102 100.238C69.7775 100.222 70.0475 100.211 70.3176 100.211C81.4209 100.211 92.5242 100.219 103.628 100.2C105.934 100.198 107.767 101.007 108.963 103.006C110.767 106.02 109.39 109.905 106.101 111.164C105.761 111.293 105.423 111.425 105.083 111.554H68.8918L68.8945 111.557Z" fill="#023E8A"/>
</svg>
