<?xml version="1.0" encoding="UTF-8"?>
<svg id="Layer_1" xmlns="http://www.w3.org/2000/svg" viewBox="0 0 243 238">
  <path d="M121.51,27.12c3.42,0,6.84,0,10.27,0,.55.1,1.11.23,1.66.31,3.83.55,7.71.86,11.48,1.68,21.1,4.59,38.32,15.51,51.36,32.7,14.58,19.22,20.22,41.01,17.11,64.94-2.27,17.45-9.36,32.82-21,46-13.57,15.37-30.46,24.95-50.66,28.55-3.3.59-6.64.92-9.96,1.37h-10.27c-1.24-.14-2.47-.28-3.71-.42-18.79-2.1-35.37-9.28-49.44-21.94-15.04-13.53-24.42-30.32-27.95-50.3-.58-3.3-.91-6.64-1.36-9.97,0-3.43,0-6.86,0-10.29.14-1.24.29-2.47.43-3.71,2.05-18.58,9.06-35.01,21.43-49.03,13.56-15.36,30.46-24.93,50.65-28.53,3.29-.59,6.64-.92,9.96-1.37ZM202.26,114.92c.02-41.73-33.98-75.8-75.63-75.79-41.6.01-75.5,33.93-75.59,75.65-.1,41.71,33.86,75.81,75.54,75.88,41.63.06,75.66-33.99,75.68-75.74Z"/>
  <path d="M100.4,108.89c1.15,0,1.82,0,2.5,0,20.76,0,41.51-.01,62.27-.01.85,0,1.71,0,2.56.11,3.09.37,5.3,2.87,5.28,5.94-.02,3.07-2.25,5.54-5.35,5.87-.79.09-1.59.09-2.39.1-20.81.01-41.63.02-62.44.02-.66,0-1.32,0-2.38,0,.69.75,1.08,1.21,1.5,1.63,6.93,6.95,13.86,13.91,20.81,20.84,1.25,1.25,2.21,2.61,2.29,4.45.11,2.52-.91,4.45-3.12,5.66-2.15,1.18-4.29.99-6.29-.4-.6-.42-1.13-.96-1.65-1.48-10.53-10.54-21.05-21.08-31.57-31.63-3.44-3.45-3.47-6.67-.07-10.08,10.6-10.63,21.21-21.24,31.8-31.89,1.56-1.57,3.28-2.7,5.58-2.41,2.41.3,4.14,1.61,4.96,3.91.79,2.21.38,4.28-1.18,6.07-.37.43-.79.83-1.19,1.23-6.77,6.79-13.55,13.57-20.32,20.36-.43.43-.85.89-1.63,1.71Z"/>
</svg>