<?xml version="1.0" encoding="UTF-8"?>
<svg id="Layer_1" xmlns="http://www.w3.org/2000/svg" viewBox="0 0 447 446">
  <path d="M227.42,340.15c-41.09,0-82.18-.02-123.27.02-9.15,0-16.84-3.12-22.59-10.28-7.44-9.26-7.99-21.6-1.78-31.83,11.31-18.64,22.57-37.31,33.84-55.97,11.67-19.34,23.33-38.69,34.99-58.04,11.98-19.89,23.95-39.79,35.93-59.68,6.29-10.45,12.56-20.92,18.86-31.36,9.51-15.76,29.34-18.93,42.73-6.49,3.32,3.08,5.62,7.36,8.04,11.3,8.55,13.96,16.96,28,25.41,42.02,10.44,17.33,20.85,34.67,31.29,52,9.79,16.25,19.63,32.47,29.42,48.72,10.48,17.39,20.94,34.8,31.39,52.21,1.62,2.7,3.31,5.36,4.72,8.17,8.69,17.42-3.7,38.36-23.11,39.16-1.34.05-2.68.06-4.02.06-40.62,0-81.23,0-121.85,0ZM227.25,320.35c5.91,0,11.83,0,17.74,0,35.25,0,70.5.01,105.74-.01,7.59,0,10.92-5.89,7.04-12.37-5.42-9.05-10.91-18.05-16.34-27.08-10.55-17.54-21.06-35.09-31.62-52.62-8.16-13.55-16.39-27.05-24.57-40.59-7.49-12.39-14.95-24.8-22.42-37.21-6.78-11.26-13.53-22.53-20.32-33.79-2.97-4.92-5.84-9.91-9.04-14.67-2.96-4.4-8.89-4.46-12.01-.19-2.03,2.79-3.68,5.86-5.48,8.82-8.92,14.75-17.83,29.51-26.74,44.27-9.8,16.24-19.61,32.47-29.4,48.72-8.17,13.55-16.32,27.1-24.49,40.65-8.29,13.75-16.58,27.5-24.88,41.24-4.67,7.75-9.39,15.47-14.02,23.25-1.97,3.31-1.45,6.83,1.22,9.52,1.96,1.97,4.48,2.08,7.04,2.08,40.85,0,81.69,0,122.54,0Z"/>
  <path d="M239.27,208.58c-.39,11.81-.82,23.62-1.14,35.43-.19,7.03-3.3,10.32-10.4,10.49-1.79.04-3.64-.21-5.38-.64-3.45-.86-5.51-3.61-5.63-7.27-.84-24.41-1.62-48.82-2.54-73.22-.27-7.09,2.49-10.33,7.75-12.25,6.21-2.27,13.81-.36,16.81,4.44,1.17,1.87,1.77,4.42,1.74,6.65-.15,11.26-.59,22.52-.94,33.78-.03.87-.1,1.73-.14,2.6-.04,0-.08,0-.12,0Z"/>
  <path d="M241.54,281.3c.04,7.48-6.56,14.24-13.89,14.26-7.69.02-14.09-6.47-14.04-14.25.05-7.85,6.07-13.93,13.91-14.03,7.49-.1,13.98,6.39,14.02,14.02Z"/>
</svg>