<svg width="218" height="188" viewBox="0 0 218 188" fill="none" xmlns="http://www.w3.org/2000/svg">
<path d="M108.785 187.104C79.3594 187.104 49.9334 187.09 20.5073 187.118C13.9547 187.118 8.44758 184.884 4.32979 179.756C-0.998262 173.125 -1.39214 164.288 3.05507 156.962C11.1546 143.613 19.2183 130.243 27.2891 116.879C35.6465 103.029 43.9966 89.1722 52.3468 75.3149C60.9261 61.071 69.4982 46.8198 78.0775 32.5759C82.582 25.0923 87.0722 17.5943 91.5839 10.1178C98.3943 -1.16848 112.595 -3.43864 122.184 5.4701C124.562 7.6758 126.209 10.7409 127.942 13.5624C134.065 23.5597 140.088 33.6143 146.139 43.6545C153.616 56.0652 161.071 68.483 168.547 80.8936C175.558 92.5308 182.605 104.147 189.616 115.784C197.121 128.237 204.612 140.705 212.095 153.173C213.255 155.107 214.466 157.012 215.476 159.024C221.699 171.499 212.826 186.495 198.926 187.068C197.966 187.104 197.006 187.111 196.047 187.111C166.957 187.111 137.875 187.111 108.785 187.111V187.104ZM108.664 172.924C112.896 172.924 117.136 172.924 121.368 172.924C146.612 172.924 171.856 172.932 197.092 172.917C202.528 172.917 204.913 168.699 202.134 164.059C198.252 157.578 194.321 151.132 190.432 144.666C182.877 132.105 175.35 119.536 167.788 106.982C161.944 97.2788 156.051 87.611 150.193 77.9145C144.829 69.0415 139.486 60.1543 134.137 51.267C129.281 43.2033 124.447 35.1325 119.585 27.0688C117.458 23.5454 115.403 19.9719 113.111 16.5631C110.991 13.4121 106.744 13.3691 104.51 16.427C103.056 18.425 101.875 20.6236 100.586 22.7433C94.1978 33.3063 87.817 43.8765 81.4362 54.4467C74.4181 66.0768 67.3928 77.6997 60.3818 89.3369C54.531 99.0405 48.6945 108.744 42.8436 118.448C36.9068 128.295 30.9701 138.142 25.0261 147.981C21.6818 153.531 18.3016 159.06 14.9859 164.631C13.5751 167.002 13.9475 169.523 15.8596 171.449C17.2632 172.86 19.0679 172.939 20.9012 172.939C50.1554 172.939 79.4024 172.939 108.657 172.939L108.664 172.924Z" fill="#BB3E03"/>
<path d="M117.27 92.8816C116.991 101.339 116.683 109.797 116.453 118.254C116.317 123.289 114.09 125.645 109.006 125.767C107.724 125.795 106.399 125.616 105.153 125.308C102.682 124.692 101.207 122.723 101.121 120.102C100.519 102.621 99.9609 85.1402 99.302 67.6665C99.1087 62.5891 101.085 60.2688 104.852 58.8938C109.299 57.2682 114.742 58.636 116.89 62.0734C117.728 63.4126 118.158 65.2388 118.136 66.8358C118.029 74.8995 117.714 82.9632 117.463 91.0269C117.442 91.6499 117.392 92.2658 117.363 92.8888C117.334 92.8888 117.306 92.8888 117.277 92.8888L117.27 92.8816Z" fill="#BB3E03"/>
<path d="M118.896 144.959C118.925 150.316 114.199 155.157 108.949 155.171C103.442 155.185 98.8589 150.538 98.8947 144.966C98.9305 139.345 103.242 134.99 108.856 134.919C114.22 134.847 118.868 139.495 118.896 144.959Z" fill="#BB3E03"/>
</svg>
