<?xml version="1.0" encoding="UTF-8"?>
<svg id="Layer_1" xmlns="http://www.w3.org/2000/svg" viewBox="0 0 420.33 485.88">
  <path d="M95.21,456.15c-1.79-.4-3.58-.84-5.38-1.21-30.52-6.24-51.47-31.55-51.54-63.62-.22-93-.2-186-.01-279,.07-32.07,20.9-57.49,51.43-63.66,4.4-.89,8.97-1.25,13.47-1.26,64.66-.08,129.32-.1,193.98-.03,31.21.03,56.09,19.56,63.38,49.84,1.23,5.11,1.61,10.53,1.63,15.81.15,31.4.09,62.8.06,94.2,0,9.53-4.1,15.46-11.92,17.57-9.15,2.47-18.41-3.63-19.65-13.01-.28-2.1-.34-4.24-.34-6.37-.02-30.6-.05-61.2,0-91.8.03-13.85-5.35-24.68-18.01-30.78-4.51-2.17-9.94-3.37-14.96-3.39-64.79-.22-129.59-.21-194.38-.11-18.32.03-31.37,12.57-32.67,30.81-.1,1.46-.14,2.92-.14,4.39,0,91.53.04,183.07-.05,274.6-.01,14.15,5.06,25.33,18.06,31.55,4.73,2.26,10.45,3.25,15.76,3.38,17.02.41,34.06.11,51.09.18,6.7.03,11.84,2.99,14.74,9.1,2.73,5.76,2.35,11.63-1.82,16.45-2.31,2.67-5.86,4.27-8.84,6.36h-63.88Z"/>
  <path d="M223.76,456.15c-.42-.27-.81-.63-1.27-.81-8.77-3.51-12.93-11.16-10.28-20.16,6.11-20.76,12.41-41.47,18.92-62.11.95-3.02,3.07-5.95,5.34-8.23,28.53-28.66,57.09-57.29,85.85-85.73,13.73-13.57,30.28-18.02,48.77-12.16,18.16,5.75,29.18,18.6,32.62,37.29,2.67,14.5-1.03,27.71-10.55,39.1-2.04,2.44-4.34,4.68-6.6,6.94-27.01,26.98-54.07,53.92-81.04,80.95-3.68,3.69-7.85,6.09-12.88,7.47-20.86,5.71-41.67,11.62-62.5,17.46h-6.39ZM251.02,417.05c10.31-2.85,19.68-5.33,28.97-8.1,2.17-.65,4.39-1.92,6-3.5,17.88-17.68,35.65-35.49,53.44-53.26.9-.9,1.72-1.88,2.38-2.61-7.54-7.55-14.85-14.87-22.3-22.34-.42.35-1.06.81-1.61,1.36-18.57,18.51-37.13,37.02-55.68,55.54-.65.65-1.44,1.34-1.7,2.16-3.14,9.97-6.18,19.98-9.49,30.76ZM365.04,326.38c5.99-4.71,8.9-10.67,6.91-18.19-1.72-6.5-6.32-10.42-12.93-11.48-7-1.12-12.19,2.17-16.26,7.32,7.5,7.52,14.8,14.84,22.28,22.35Z"/>
  <path d="M200.21,143.17c27.14,0,54.28-.06,81.41.03,11.97.04,19.75,10.85,15.63,21.52-2.43,6.3-7.22,9.69-13.91,10.3-1.98.18-3.99.08-5.98.08-52.55,0-105.09.01-157.64,0-10.79,0-18.11-6.98-17.62-16.69.44-8.89,7.22-15.18,16.7-15.21,21.28-.07,42.57-.02,63.85-.02,5.85,0,11.71,0,17.56,0Z"/>
  <path d="M200.09,238.98c-27,0-54.01.04-81.01-.02-10.88-.02-18.07-7.87-16.82-18.12.88-7.21,6.62-12.83,14-13.67,1.19-.13,2.39-.12,3.59-.12,53.61,0,107.22-.01,160.83,0,10.63,0,17.82,6.74,17.6,16.34-.21,8.85-7.04,15.46-16.37,15.56-11.57.11-23.15.03-34.72.03-15.7,0-31.39,0-47.09,0Z"/>
  <path d="M167.82,302.85c-16.35,0-32.7.05-49.04-.02-8.67-.04-15.29-5.47-16.46-13.23-1.54-10.24,5.56-18.58,16.19-18.65,19.67-.12,39.34-.04,59.01-.04,13.42,0,26.85-.09,40.27.05,7.76.08,14.12,5.34,15.56,12.42,1.56,7.65-2.08,15.15-9.15,17.97-2.51,1-5.41,1.41-8.13,1.44-16.08.13-32.16.06-48.25.06Z"/>
</svg>