<svg width="260" height="260" viewBox="0 0 260 260" fill="none" xmlns="http://www.w3.org/2000/svg">
<path d="M210.215 162.954C220.697 165.823 228.747 172.014 233.807 181.825C245.307 204.111 230.841 231.528 206.045 234.431C193.225 235.935 182.517 231.633 173.961 221.985C173.141 221.058 172.379 220.691 171.151 220.691C144.11 220.726 117.063 220.936 90.0221 220.627C75.4459 220.458 64.3362 213.421 56.6816 201.045C53.8199 196.411 52.0168 191.333 51.5747 185.836C51.4002 183.667 51.1443 181.493 51.1385 179.324C51.1094 142.936 51.1385 106.547 51.1094 70.1531C51.1036 59.1294 54.7447 49.5397 62.3353 41.5764C67.3434 36.3298 73.3926 32.7096 80.4539 30.8208C84.1765 29.824 87.9282 29.3868 91.7729 29.3926C106.942 29.4217 122.112 29.4392 137.282 29.3751C140.527 29.3634 143.057 30.4361 145.367 32.7737C156.651 44.2114 168.045 55.5325 179.394 66.906C188.938 76.4782 198.518 86.0154 207.959 95.6926C209.081 96.841 209.494 98.724 210.093 100.315C210.338 100.963 210.215 101.755 210.215 102.484C210.215 122.013 210.215 141.548 210.215 161.077V162.943V162.954ZM130.715 45.354C130.063 45.354 129.592 45.354 129.121 45.354C116.522 45.354 103.924 45.354 91.3192 45.354C87.6141 45.354 84.0718 46.0419 80.7156 47.7267C72.1886 52.0173 67.2271 58.972 67.1747 68.4334C66.9479 106.18 67.0758 143.927 67.0991 181.679C67.0991 185.258 68.0297 188.68 69.7456 191.799C74.4338 200.299 81.6696 204.729 91.3716 204.753C115.603 204.817 139.829 204.776 164.061 204.776H165.626C165.451 202.876 165.213 201.185 165.16 199.494C164.625 182.472 176.125 167.187 192.626 163.054C193.987 162.715 194.342 162.185 194.342 160.827C194.296 144.212 194.313 127.598 194.313 110.984V109.101C193.563 109.101 192.993 109.101 192.428 109.101C184.966 109.101 177.503 109.101 170.04 109.101C164.352 109.101 158.867 107.946 153.812 105.405C139.067 97.9953 131.198 85.998 130.755 69.3836C130.558 61.9567 130.721 54.5181 130.721 47.0854C130.721 46.5666 130.721 46.0477 130.721 45.3482L130.715 45.354ZM201.45 227.511C217.393 227.541 230.538 214.418 230.573 198.451C230.608 182.396 217.486 169.169 201.514 169.151C185.635 169.134 172.414 182.326 172.367 198.247C172.321 214.272 185.454 227.488 201.456 227.511H201.45ZM146.617 56.9258C146.617 60.8374 146.652 64.5159 146.606 68.2002C146.559 72.2751 147.251 76.1751 149.089 79.8303C152.143 85.9047 156.942 90.067 163.369 92.0666C169.575 93.9962 176.037 93.0226 182.401 93.0868C182.47 93.0868 182.54 92.9818 182.552 92.976C170.645 81.0312 158.733 69.0805 146.611 56.9258H146.617Z" fill="#FB8500"/>
<path d="M130.618 148.981C120.102 148.981 109.591 148.993 99.0749 148.981C94.3751 148.975 90.7979 145.343 90.9375 140.668C91.0539 136.785 94.1076 133.457 98.278 133.037C98.5165 133.014 98.7608 133.02 99.0051 133.02C120.131 133.02 141.257 133.014 162.382 133.025C166.855 133.025 170.438 136.593 170.45 140.977C170.467 145.302 166.919 148.963 162.598 148.975C151.936 149.004 141.28 148.987 130.618 148.987V148.981Z" fill="#FB8500"/>
<path d="M130.772 180.828C120.209 180.828 109.64 180.747 99.0776 180.869C94.7792 180.921 90.6552 177.086 90.9054 172.434C91.1031 168.743 94.3429 165.269 98.0888 164.978C98.4727 164.948 98.8624 164.948 99.2521 164.948C120.238 164.948 141.219 164.943 162.205 164.948C166.707 164.948 170.226 168.16 170.447 172.393C170.685 176.969 167.184 180.787 162.612 180.805C151.997 180.84 141.387 180.817 130.772 180.817V180.828Z" fill="#FB8500"/>
<path d="M106.868 101.167C109.485 101.167 112.102 101.149 114.72 101.167C118.6 101.196 121.787 103.784 122.572 107.521C123.323 111.083 121.397 114.942 117.977 116.435C116.988 116.866 115.813 117.029 114.726 117.041C109.491 117.099 104.262 117.099 99.0269 117.058C94.0362 117.018 90.3544 112.978 90.9942 108.023C91.4653 104.379 94.3096 101.505 98.294 101.167C98.3928 101.161 98.4859 101.161 98.5848 101.161C101.348 101.161 104.111 101.161 106.873 101.161L106.868 101.167Z" fill="#FB8500"/>
<path d="M197.994 180.257H203.258C203.258 180.805 203.258 181.318 203.258 181.831C203.258 187.124 203.287 192.417 203.234 197.705C203.223 198.707 203.554 199.285 204.409 199.786C209.08 202.543 213.716 205.359 218.363 208.157C218.73 208.379 219.09 208.624 219.59 208.95C218.637 210.507 217.718 212.011 216.74 213.608C212.384 210.926 208.143 208.315 203.897 205.697C202.164 204.63 200.413 203.593 198.726 202.456C198.325 202.188 197.906 201.576 197.906 201.121C197.86 194.37 197.877 187.625 197.883 180.875C197.883 180.694 197.947 180.507 197.994 180.251V180.257Z" fill="#FB8500"/>
</svg>
