<?xml version="1.0" encoding="UTF-8"?>
<svg id="Layer_1" xmlns="http://www.w3.org/2000/svg" viewBox="0 0 447 446">
  <path d="M30,174.97c.49-8.81.85-17.64,1.5-26.44,1.06-14.4,1.08-28.93,5.22-42.97,10.59-35.94,42.82-61.79,80.19-64.73,35.27-2.77,70.57-1.85,105.86-1.13,16.86.34,33.66,2.18,48.98,10.29,30.22,16,47.22,40.97,50.26,75.08,1.24,13.91,1.77,27.88,2.55,41.82.61,10.84-6.59,19.28-16.89,19.94-9.83.63-18.08-6.7-18.86-17.2-1.05-14.18-1.59-28.39-2.7-42.56-2.11-26.95-23.12-48.53-50.26-50.11-24.76-1.45-49.61-1.31-74.41-1.86-.45,0-.9.17-2.17.41,1.8.91,2.96,1.47,4.1,2.07,10.58,5.55,21.78,10.19,31.6,16.87,17.34,11.8,27.1,29.53,34.17,48.83,4.94,13.49,6.66,27.56,7.43,41.8,2.55,47.38,2.4,94.77.73,142.16-.13,3.83-.37,7.65-.57,11.81,10.41-.81,19.32-4.38,27.23-10.29,13.18-9.86,20.57-23.1,22.2-39.52.26-2.6.36-5.26.93-7.79,2.08-9.19,10.77-14.96,20.32-13.64,8.6,1.18,15.57,9.29,15.11,18.19-1.72,33.07-16.11,58.94-44.4,76.58-12.5,7.79-26.36,11.71-41,12.79-2.52.19-3.12,1.15-3.62,3.51-1.21,5.71-2.49,11.49-4.62,16.89-4.96,12.58-12.98,22.36-26.66,26.22h-11.23c-7.78-2.18-15.64-4.1-23.31-6.59-31.9-10.37-61.71-25.35-90.6-42.15-6.03-3.51-11.52-8.41-16.29-13.57-14.41-15.58-21.48-34.79-25.55-55.24-3.74-18.8-3.7-37.92-4.66-56.96-.1-1.97-.37-3.94-.57-5.9,0-22.21,0-44.42,0-66.62ZM203.3,270.71c-1.05-32.82-1.83-58.75-2.71-84.67-.57-16.83-4.21-32.85-13.17-47.35-3.96-6.4-8.35-12.47-15.06-16.33-16.6-9.54-33.93-17.37-52.59-21.92-11.66-2.84-23.39-5.08-35.52-3.42-2.69.37-4.84,1.29-5.95,3.79-2.71,6.11-6.68,12.06-7.68,18.45-2.11,13.51-3.15,27.24-3.73,40.92-1.54,36.28-1.37,72.57.62,108.85.85,15.55,3.74,30.64,9.64,45.1,6.26,15.35,15.49,28.08,30.83,35.61,10.95,5.38,21.64,11.31,32.73,16.37,16.43,7.49,33.08,14.49,50.72,18.79,2.21.54,3.38.16,3.93-1.9,1.09-4.08,2.77-8.14,2.99-12.27,1.91-35.61,3.55-71.23,4.95-100.01Z"/>
  <path d="M357.2,246.58c-1.36,0-2.72,0-4.08,0-25.19,0-50.39.03-75.58-.02-10.59-.02-17.72-5.51-19.59-14.85-1.98-9.88,5.42-19.92,15.46-20.91,1.61-.16,3.24-.15,4.86-.15,24.94,0,49.89,0,74.83,0h4.78c-1.2-1.38-1.84-2.21-2.58-2.94-5.72-5.74-11.51-11.42-17.17-17.22-7.47-7.67-7.66-18.64-.56-25.8,7.3-7.35,18.27-7.19,26.04.53,13.18,13.09,26.35,26.21,39.42,39.41,13.74,13.88,13.91,33.93.27,47.88-13.08,13.37-26.35,26.55-39.67,39.69-7.58,7.48-18.64,7.45-25.79.21-7.16-7.25-6.97-18.1.61-25.76,6.37-6.43,12.89-12.72,19.35-19.07-.2-.34-.4-.67-.6-1.01Z"/>
</svg>