<svg width="278" height="277" viewBox="0 0 278 277" fill="none" xmlns="http://www.w3.org/2000/svg">
<path d="M54.6039 145.102C54.6039 123.004 54.6039 100.9 54.6039 78.8023C54.6039 74.7653 55.145 70.8339 56.849 67.1198C60.4686 59.2259 66.4951 54.1455 74.9035 52.0401C77.2046 51.4625 79.6612 51.301 82.0432 51.2762C91.8758 51.1954 101.715 51.2203 111.553 51.27C112.841 51.2762 113.537 50.9656 114.004 49.6614C116.485 42.7115 121.137 37.6125 127.798 34.4885C134.154 31.5073 140.765 31.1285 147.432 33.4078C155.803 36.271 161.282 42.0656 164.299 50.3073C164.442 50.6924 164.958 51.0402 165.375 51.1954C165.804 51.3507 166.326 51.2451 166.805 51.2451C176.377 51.2451 185.942 51.27 195.513 51.2451C206.26 51.2141 214.532 55.574 220.011 64.9212C222.536 69.2315 223.388 73.9579 223.388 78.8768C223.388 120.942 223.388 163.008 223.388 205.073C223.388 207.477 223.431 209.88 223.375 212.278C223.133 222.165 218.96 229.904 210.539 235.189C206.925 237.462 202.908 238.705 198.617 238.941C197.765 238.99 196.906 239.003 196.054 239.003C157.993 239.003 119.931 238.99 81.8752 239.015C73.6721 239.015 66.7687 236.139 61.2896 230.053C56.5816 224.817 54.5915 218.557 54.5977 211.564C54.6288 189.41 54.6101 167.256 54.6101 145.102H54.6039ZM208.903 145.233C208.903 123.563 208.903 101.894 208.903 80.2245C208.903 79.5848 208.891 78.9451 208.903 78.3054C209.034 71.1941 203.685 65.5858 196.328 65.6851C193.069 65.7286 189.804 65.7535 186.545 65.6603C185.127 65.623 184.71 66.095 184.729 67.4925C184.791 73.7902 184.617 80.0941 184.804 86.3856C184.94 91.1244 181.57 94.6397 176.576 94.6149C151.512 94.4906 126.442 94.4906 101.373 94.6149C96.6584 94.6397 93.0201 91.2238 93.188 86.5098C93.4182 80.1686 93.2192 73.8088 93.2627 67.4552C93.2689 66.1882 92.9517 65.6292 91.5586 65.6603C88.194 65.741 84.8232 65.6727 81.4586 65.6976C79.0144 65.71 76.7071 66.2317 74.6361 67.6105C70.5811 70.3184 69.045 74.1877 69.045 78.9513C69.0823 122.719 69.0636 166.486 69.0636 210.253C69.0636 211.054 69.0636 211.855 69.0823 212.657C69.1631 215.632 70.1209 218.277 72.1235 220.507C74.8413 223.538 78.3054 224.594 82.3044 224.587C120.092 224.556 157.881 224.569 195.669 224.563C196.521 224.563 197.447 224.699 198.219 224.438C200.252 223.737 202.435 223.159 204.164 221.967C207.734 219.507 208.916 215.756 208.909 211.526C208.891 189.428 208.897 167.33 208.903 145.233ZM107.735 80.1252C108.618 80.1252 109.196 80.1252 109.781 80.1252C115.123 80.1252 120.466 80.1252 125.808 80.1252C140.019 80.1252 154.224 80.1065 168.435 80.15C169.79 80.15 170.313 79.8705 170.276 78.3986C170.17 74.6659 170.195 70.9332 170.263 67.2006C170.288 65.977 169.853 65.6417 168.69 65.6665C165.592 65.7286 162.495 65.6913 159.398 65.6851C154.105 65.6727 151.475 63.2319 151.064 57.9589C150.672 52.8785 147.32 48.3944 142.967 47.1025C134.714 44.6679 127.164 49.9222 126.927 58.5241C126.834 61.9276 123.737 65.8031 119.439 65.6913C116.877 65.623 114.315 65.6851 111.746 65.6851C109.076 65.6851 107.741 67.0204 107.741 69.6911C107.741 73.0946 107.741 76.4919 107.741 80.1189L107.735 80.1252Z" fill="#023E8A"/>
<path d="M139.131 142.754C126.357 142.754 113.589 142.773 100.815 142.748C95.4599 142.736 91.8838 137.873 93.6936 133.022C94.7571 130.171 96.94 128.631 99.9688 128.308C100.392 128.265 100.821 128.277 101.25 128.277C126.419 128.277 151.595 128.277 176.764 128.277C181.012 128.277 184.072 130.631 184.625 134.283C185.309 138.792 182.05 142.698 177.448 142.736C170.713 142.792 163.983 142.754 157.248 142.754C151.209 142.754 145.17 142.754 139.131 142.754Z" fill="#023E8A"/>
<path d="M138.908 181.211C126.352 181.211 113.789 181.168 101.232 181.236C97.2455 181.255 94.7267 179.249 93.7316 176.628C91.9094 171.815 95.1683 167.113 100.504 166.728C100.878 166.703 101.251 166.716 101.624 166.716C126.526 166.716 151.434 166.716 176.336 166.716C178.935 166.716 181.311 167.293 183.065 169.423C184.943 171.709 185.242 174.299 184.122 176.92C183.071 179.373 181.075 180.845 178.344 181.124C177.548 181.205 176.746 181.205 175.944 181.205C163.599 181.205 151.253 181.205 138.908 181.205V181.211Z" fill="#023E8A"/>
</svg>
