<?xml version="1.0" encoding="UTF-8"?>
<svg id="Layer_1" xmlns="http://www.w3.org/2000/svg" viewBox="0 0 447 446">
  <path d="M361.41,279.53c18.02,4.92,31.86,15.54,40.56,32.37,19.77,38.23-5.1,85.26-47.73,90.24-22.04,2.58-40.45-4.8-55.16-21.35-1.41-1.59-2.72-2.22-4.83-2.22-46.49.06-92.99.42-139.48-.11-25.06-.29-44.16-12.36-57.32-33.59-4.92-7.95-8.02-16.66-8.78-26.09-.3-3.72-.74-7.45-.75-11.17-.05-62.42,0-124.84-.05-187.27-.01-18.91,6.25-35.36,19.3-49.02,8.61-9,19.01-15.21,31.15-18.45,6.4-1.71,12.85-2.46,19.46-2.45,26.08.05,52.16.08,78.24-.03,5.58-.02,9.93,1.82,13.9,5.83,19.4,19.62,38.99,39.04,58.5,58.55,16.41,16.42,32.88,32.78,49.11,49.38,1.93,1.97,2.64,5.2,3.67,7.93.42,1.11.21,2.47.21,3.72,0,33.5,0,67.01,0,100.51v3.2ZM224.73,77.8c-1.12,0-1.93,0-2.74,0-21.66,0-43.32,0-64.99,0-6.37,0-12.46,1.18-18.23,4.07-14.66,7.36-23.19,19.29-23.28,35.52-.39,64.75-.17,129.5-.13,194.26,0,6.14,1.6,12.01,4.55,17.36,8.06,14.58,20.5,22.18,37.18,22.22,41.66.11,83.31.04,124.97.04h2.69c-.3-3.26-.71-6.16-.8-9.06-.92-29.2,18.85-55.42,47.22-62.51,2.34-.58,2.95-1.49,2.95-3.82-.08-28.5-.05-57-.05-85.5v-3.23c-1.29,0-2.27,0-3.24,0-12.83,0-25.66,0-38.49,0-9.78,0-19.21-1.98-27.9-6.34-25.35-12.71-38.88-33.29-39.64-61.79-.34-12.74-.06-25.5-.06-38.25,0-.89,0-1.78,0-2.98ZM346.34,390.27c27.41.05,50.01-22.46,50.07-49.85.06-27.54-22.5-50.23-49.96-50.26-27.3-.03-50.03,22.6-50.11,49.91-.08,27.49,22.5,50.16,50.01,50.2ZM252.07,97.65c0,6.71.06,13.02-.02,19.34-.08,6.99,1.11,13.68,4.27,19.95,5.25,10.42,13.5,17.56,24.55,20.99,10.67,3.31,21.78,1.64,32.72,1.75.12,0,.24-.18.26-.19-20.47-20.49-40.95-40.99-61.79-61.84Z"/>
  <path d="M224.56,255.56c-18.08,0-36.15.02-54.23,0-8.08-.01-14.23-6.24-13.99-14.26.2-6.66,5.45-12.37,12.62-13.09.41-.04.83-.03,1.25-.03,36.32,0,72.64-.01,108.96.01,7.69,0,13.85,6.12,13.87,13.64.03,7.42-6.07,13.7-13.5,13.72-18.33.05-36.65.02-54.98.02Z"/>
  <path d="M224.83,310.19c-18.16,0-36.33-.14-54.49.07-7.39.09-14.48-6.49-14.05-14.47.34-6.33,5.91-12.29,12.35-12.79.66-.05,1.33-.05,2-.05,36.08,0,72.15-.01,108.23,0,7.74,0,13.79,5.51,14.17,12.77.41,7.85-5.61,14.4-13.47,14.43-18.25.06-36.49.02-54.74.02Z"/>
  <path d="M183.73,173.54c4.5,0,9-.03,13.5,0,6.67.05,12.15,4.49,13.5,10.9,1.29,6.11-2.02,12.73-7.9,15.29-1.7.74-3.72,1.02-5.59,1.04-9,.1-17.99.1-26.99.03-8.58-.07-14.91-7-13.81-15.5.81-6.25,5.7-11.18,12.55-11.76.17-.01.33-.01.5-.01,4.75,0,9.5,0,14.25,0Z"/>
  <path d="M340.4,309.21h9.05c0,.94,0,1.82,0,2.7,0,9.08.05,18.16-.04,27.23-.02,1.72.55,2.71,2.02,3.57,8.03,4.73,16,9.56,23.99,14.36.63.38,1.25.8,2.11,1.36-1.64,2.67-3.22,5.25-4.9,7.99-7.49-4.6-14.78-9.08-22.08-13.57-2.98-1.83-5.99-3.61-8.89-5.56-.69-.46-1.41-1.51-1.41-2.29-.08-11.58-.05-23.15-.04-34.73,0-.31.11-.63.19-1.07Z"/>
</svg>