<svg width="106" height="122" viewBox="0 0 106 122" fill="none" xmlns="http://www.w3.org/2000/svg">
<path d="M24.0115 114.535C23.5601 114.435 23.1087 114.324 22.6547 114.231C14.9581 112.664 9.67488 106.309 9.65723 98.2567C9.60175 74.9053 9.60679 51.5538 9.65471 28.2024C9.67236 20.1499 14.9253 13.7672 22.6245 12.218C23.7341 11.9945 24.8865 11.9041 26.0214 11.9016C42.3275 11.8815 58.6337 11.8765 74.9398 11.894C82.8104 11.9016 89.0847 16.8054 90.9231 24.4084C91.2333 25.6915 91.3292 27.0524 91.3342 28.3782C91.372 36.2624 91.3569 44.1467 91.3493 52.0309C91.3493 54.4238 90.3154 55.9128 88.3433 56.4426C86.0358 57.0628 83.7006 55.5311 83.3879 53.1759C83.3173 52.6486 83.3022 52.1113 83.3022 51.5764C83.2971 43.8931 83.2896 36.2097 83.3022 28.5263C83.3098 25.0487 81.953 22.3294 78.7604 20.7977C77.623 20.2529 76.2537 19.9516 74.9877 19.9465C58.6488 19.8913 42.3073 19.8938 25.9684 19.9189C21.3484 19.9264 18.0574 23.0751 17.7296 27.655C17.7044 28.0216 17.6943 28.3882 17.6943 28.7573C17.6943 51.7396 17.7044 74.7245 17.6817 97.7068C17.6792 101.26 18.9577 104.067 22.2361 105.629C23.4289 106.196 24.8714 106.445 26.2105 106.477C30.5027 106.58 34.7999 106.505 39.0945 106.523C40.7842 106.53 42.0804 107.273 42.8117 108.808C43.5002 110.254 43.4043 111.728 42.3527 112.938C41.7702 113.608 40.8749 114.01 40.1234 114.535H24.014H24.0115Z" fill="#81171B"/>
<path d="M56.4284 114.535C56.3225 114.467 56.2242 114.377 56.1082 114.332C53.8965 113.45 52.8475 111.53 53.5157 109.27C55.0566 104.057 56.6453 98.8571 58.287 93.6746C58.5266 92.9163 59.0612 92.1806 59.6337 91.6081C66.8285 84.4118 74.0308 77.2231 81.2836 70.0821C84.7461 66.6748 88.9197 65.5574 93.5825 67.0288C98.1622 68.4726 100.941 71.6991 101.809 76.392C102.482 80.0328 101.549 83.3497 99.1482 86.2096C98.6338 86.8223 98.0537 87.3847 97.4838 87.9522C90.6723 94.7266 83.8483 101.491 77.0469 108.278C76.1189 109.205 75.0673 109.807 73.7988 110.154C68.5383 111.587 63.2903 113.071 58.0374 114.538H56.4259L56.4284 114.535ZM63.303 104.718C65.903 104.002 68.2659 103.379 70.6087 102.684C71.1559 102.52 71.7158 102.202 72.1218 101.805C76.6308 97.3656 81.1121 92.8937 85.5984 88.4318C85.8254 88.2058 86.0322 87.9597 86.1986 87.7764C84.2972 85.8807 82.4537 84.0427 80.575 82.1671C80.469 82.2549 80.3076 82.3704 80.1689 82.5085C75.4859 87.1562 70.8054 91.8039 66.1274 96.4541C65.9635 96.6173 65.7643 96.7906 65.6987 96.9965C64.9068 99.4999 64.1402 102.013 63.3055 104.72L63.303 104.718ZM92.0568 81.9511C93.5674 80.7685 94.3013 79.272 93.7994 77.3838C93.3657 75.7517 92.2056 74.7674 90.5387 74.5013C88.7734 74.22 87.4646 75.0461 86.4382 76.3392C88.3296 78.2274 90.1705 80.0654 92.0568 81.9511Z" fill="#81171B"/>
<path d="M50.4897 35.9488C57.3339 35.9488 64.1782 35.9337 71.0199 35.9563C74.0385 35.9663 76.0005 38.6806 74.9615 41.3598C74.3487 42.9416 73.1407 43.7928 71.4536 43.946C70.9543 43.9912 70.4474 43.9661 69.9456 43.9661C56.6934 43.9661 43.4437 43.9686 30.1915 43.9661C27.4704 43.9661 25.6245 42.2135 25.748 39.7754C25.859 37.5432 27.5688 35.9638 29.9595 35.9563C35.3259 35.9387 40.6949 35.9513 46.0614 35.9513C47.5366 35.9513 49.0144 35.9513 50.4897 35.9513V35.9488Z" fill="#81171B"/>
<path d="M50.4605 60.0057C43.6515 60.0057 36.8401 60.0158 30.0311 60.0007C27.2874 59.9957 25.4742 58.0246 25.7894 55.451C26.0113 53.6406 27.4589 52.2295 29.32 52.0186C29.6201 51.9859 29.9227 51.9884 30.2253 51.9884C43.7448 51.9884 57.2644 51.9859 70.7839 51.9884C73.4646 51.9884 75.2778 53.6808 75.2223 56.0912C75.1693 58.3134 73.4469 59.9731 71.0941 59.9982C68.1763 60.0258 65.256 60.0057 62.3383 60.0057C58.379 60.0057 54.4223 60.0057 50.463 60.0057H50.4605Z" fill="#81171B"/>
<path d="M42.3208 76.0426C38.1977 76.0426 34.0745 76.0552 29.9538 76.0376C27.7674 76.0275 26.0979 74.6641 25.8029 72.7157C25.4145 70.1445 27.205 68.0504 29.8857 68.0328C34.8461 68.0027 39.8066 68.0228 44.767 68.0228C48.1513 68.0228 51.5381 68.0002 54.9224 68.0353C56.8794 68.0554 58.4832 69.3762 58.8464 71.1539C59.2398 73.0747 58.3218 74.9579 56.5389 75.666C55.9059 75.9171 55.1746 76.02 54.4887 76.0276C50.4336 76.0602 46.3785 76.0426 42.3208 76.0426Z" fill="#81171B"/>
</svg>
