<svg width="121" height="122" viewBox="0 0 121 122" fill="none" xmlns="http://www.w3.org/2000/svg">
<path d="M74.3152 112.803H24.2998C24.21 112.753 24.1229 112.68 24.0275 112.658C18.6371 111.417 15.7005 107.77 15.7005 102.284C15.7005 82.5118 15.6977 62.7426 15.7005 42.9705C15.7005 36.6238 19.8527 32.4626 26.1977 32.4375C27.1663 32.4347 28.1348 32.4375 29.2017 32.4375C29.2017 31.247 29.1876 30.2046 29.2017 29.1622C29.2887 23.1621 33.5056 18.9841 39.5136 18.9422C40.5524 18.9338 41.5911 18.9422 42.7562 18.9422C42.7562 17.5225 42.7085 16.237 42.7647 14.957C42.9163 11.4917 44.4913 8.79203 47.4448 7.00346C48.5818 6.31598 49.9378 5.98342 51.1928 5.48877C59.1071 5.48877 67.0242 5.48877 74.9385 5.48877C75.062 5.54466 75.1828 5.63409 75.3119 5.65086C79.9415 6.22376 83.7933 8.29459 87.0612 11.5839C92.6088 17.1648 98.1817 22.7177 103.774 28.2567C107.839 32.2838 109.822 37.1325 109.813 42.8335C109.799 53.66 109.813 64.4892 109.808 75.3156C109.808 81.7126 105.652 85.8403 99.2121 85.857C98.2772 85.857 97.3423 85.857 96.3063 85.857C96.3063 87.0392 96.3203 88.0816 96.3063 89.124C96.2165 95.1296 92.0052 99.302 85.9972 99.3495C84.9584 99.3579 83.9197 99.3495 82.7574 99.3495C82.7574 100.73 82.7939 101.982 82.7517 103.229C82.603 107.63 79.7505 111.232 75.4916 112.437C75.0957 112.549 74.7083 112.68 74.3152 112.8V112.803ZM49.045 45.6869C49.045 55.605 49.045 65.5232 49.045 75.4414C49.045 78.2081 50.3898 79.5635 53.1608 79.5635C68.5683 79.5691 83.9758 79.5691 99.3805 79.5635C102.123 79.5635 103.505 78.1634 103.505 75.4246C103.508 64.5647 103.508 53.7019 103.505 42.8419C103.505 40.1172 102.109 38.7338 99.3552 38.7254C95.2928 38.717 91.2304 38.7366 87.1707 38.7114C86.2302 38.7059 85.2673 38.6751 84.3548 38.4767C79.5877 37.4483 76.5051 33.5246 76.4742 28.4747C76.4489 24.2827 76.4742 20.0936 76.4658 15.9016C76.4602 13.1349 75.1041 11.7767 72.3528 11.7739C66.05 11.7739 59.7472 11.7739 53.4444 11.7739C50.3084 11.7739 49.045 13.0287 49.045 16.1391C49.045 25.9875 49.045 35.8358 49.045 45.6841V45.6869ZM42.7394 25.2273C41.6782 25.2273 40.805 25.2273 39.9291 25.2273C36.8409 25.2273 35.5073 26.5492 35.5073 29.6177C35.5073 49.2836 35.5073 68.9495 35.5073 88.6153C35.5073 91.7481 36.8296 93.0588 39.9881 93.0588C55.1878 93.0588 70.3876 93.0588 85.5873 93.0588C85.9382 93.0588 86.2892 93.0728 86.6373 93.0365C88.26 92.866 89.6469 91.8208 89.8322 90.3173C90.0091 88.8892 89.8715 87.422 89.8715 85.8542H88.5211C76.8223 85.8542 65.1263 85.8682 53.4275 85.8347C52.181 85.8319 50.8867 85.7257 49.702 85.3708C45.3307 84.0657 42.745 80.3572 42.7422 75.5308C42.731 59.252 42.7394 42.9761 42.7394 26.6973C42.7394 26.2529 42.7394 25.8086 42.7394 25.2273ZM29.2045 38.7226C28.1264 38.7226 27.1887 38.7198 26.2538 38.7226C23.3537 38.7338 22.0061 40.0696 22.0061 42.9481C22.0061 62.7118 22.0061 82.4755 22.0061 102.239C22.0061 105.171 23.3621 106.512 26.3184 106.512C41.6192 106.512 56.9172 106.512 72.218 106.512C72.5325 106.512 72.8497 106.523 73.1642 106.498C74.6718 106.375 76.1233 105.322 76.317 103.866C76.5107 102.41 76.3591 100.906 76.3591 99.3495H75.0676C63.338 99.3495 51.6111 99.3663 39.8814 99.3272C38.604 99.3216 37.276 99.1763 36.0632 98.799C31.7509 97.4632 29.2101 93.7239 29.2073 88.8668C29.1989 72.6635 29.2045 56.463 29.2045 40.2597C29.2045 39.8097 29.2045 39.3598 29.2045 38.7226ZM82.7742 16.4438C82.7742 16.835 82.7742 17.1368 82.7742 17.4387C82.7742 21.0354 82.7714 24.6321 82.7742 28.226C82.7798 31.0206 84.1667 32.4207 86.9574 32.4291C90.5987 32.4403 94.2372 32.4347 97.8785 32.4291C98.1733 32.4291 98.4681 32.3872 98.7376 32.3676C93.4286 27.0718 88.1646 21.8206 82.7714 16.441L82.7742 16.4438Z" fill="#939393"/>
<path d="M72.9113 63.5361C74.2898 61.4737 75.6065 59.5063 76.9232 57.5388C79.1355 54.23 81.3535 50.9267 83.5545 47.6123C84.2115 46.623 85.0481 45.9606 86.2806 45.9243C88.5912 45.8572 90.1606 48.1265 89.2706 50.2588C89.1386 50.5774 88.9505 50.8764 88.7568 51.167C84.4164 57.6702 80.0732 64.1705 75.7216 70.6653C74.6772 72.2247 73.164 72.8087 71.6845 72.1073C71.0865 71.825 70.5166 71.3164 70.1403 70.7687C67.9477 67.5744 65.8056 64.3466 63.6635 61.1188C62.5461 59.4336 62.8718 57.5221 64.4018 56.5216C65.9375 55.5183 67.7792 55.9766 68.9303 57.673C70.0477 59.319 71.1426 60.9818 72.2488 62.6335C72.4369 62.9157 72.6474 63.184 72.9029 63.5361H72.9113Z" fill="#939393"/>
</svg>
