<?xml version="1.0" encoding="UTF-8"?>
<svg id="Layer_1" xmlns="http://www.w3.org/2000/svg" viewBox="0 0 437 446">
  <path d="M26.77,284.36c1.64-6.28,5.73-10.83,10.21-15.3C109.71,196.43,182.41,123.76,255.06,51.04c12.9-12.91,28.28-19.78,46.54-19.65,16.39.11,30.9,5.69,42.68,17.12,16.38,15.89,32.61,31.96,48.44,48.41,24.09,25.05,23.21,63.8-1.84,88.89-61.52,61.62-123.13,123.15-184.71,184.71-11.2,11.2-22.49,22.32-33.57,33.64-4.5,4.6-9.19,8.71-15.54,10.46H43.99c-8.87-2.61-14.65-8.31-17.22-17.22v-113.04ZM68.9,372.12c1.1.15,1.69.3,2.29.31,23.71.01,47.41.05,71.12-.08,1.5,0,3.32-1.03,4.43-2.13,71.34-71.22,142.63-142.49,213.88-213.79,9.93-9.94,9.87-22.17.02-32.06-14.44-14.49-28.91-28.96-43.4-43.4-10.09-10.06-22.3-10.1-32.32-.08-71.21,71.18-142.41,142.35-213.52,213.62-1.38,1.38-2.36,3.83-2.38,5.79-.18,18.21-.11,36.42-.11,54.64,0,5.6,0,11.21,0,17.18Z"/>
  <path d="M255.14,414.62c-1.26-.48-2.53-.95-3.79-1.43-9.34-3.56-14.81-12.96-13.37-22.99,1.37-9.54,9.62-17.04,19.44-17.65.99-.06,1.99-.1,2.99-.1,41.12,0,82.24.03,123.36-.04,8.54-.01,15.33,3,19.76,10.43,6.68,11.2,1.58,25.64-10.6,30.32-1.26.48-2.51.97-3.77,1.45h-134.03Z"/>
</svg>