<?xml version="1.0" encoding="UTF-8"?>
<svg id="Layer_1" xmlns="http://www.w3.org/2000/svg" viewBox="0 0 447 446">
  <path d="M87.8,233.63c0-35.58,0-71.17,0-106.75,0-6.5.87-12.83,3.61-18.81,5.82-12.71,15.51-20.89,29.03-24.28,3.7-.93,7.65-1.19,11.48-1.23,15.81-.13,31.63-.09,47.45-.01,2.07.01,3.19-.49,3.94-2.59,3.99-11.19,11.47-19.4,22.18-24.43,10.22-4.8,20.85-5.41,31.57-1.74,13.46,4.61,22.27,13.94,27.12,27.21.23.62,1.06,1.18,1.73,1.43.69.25,1.53.08,2.3.08,15.39,0,30.77.04,46.16,0,17.28-.05,30.58,6.97,39.39,22.02,4.06,6.94,5.43,14.55,5.43,22.47,0,67.73,0,135.46,0,203.19,0,3.87.07,7.74-.02,11.6-.39,15.92-7.1,28.38-20.64,36.89-5.81,3.66-12.27,5.66-19.17,6.04-1.37.08-2.75.1-4.12.1-61.2,0-122.4-.02-183.59.02-13.19,0-24.29-4.63-33.1-14.43-7.57-8.43-10.77-18.51-10.76-29.77.05-35.67.02-71.34.02-107.01ZM335.9,233.84c0-34.89,0-69.78,0-104.67,0-1.03-.02-2.06,0-3.09.21-11.45-8.39-20.48-20.22-20.32-5.24.07-10.49.11-15.73-.04-2.28-.06-2.95.7-2.92,2.95.1,10.14-.18,20.29.12,30.42.22,7.63-5.2,13.29-13.23,13.25-40.3-.2-80.61-.2-120.92,0-7.58.04-13.43-5.46-13.16-13.05.37-10.21.05-20.45.12-30.68.01-2.04-.5-2.94-2.74-2.89-5.41.13-10.83.02-16.24.06-3.93.02-7.64.86-10.97,3.08-6.52,4.36-8.99,10.59-8.99,18.26.06,70.47.03,140.94.03,211.41,0,1.29,0,2.58.03,3.87.13,4.79,1.67,9.05,4.89,12.64,4.37,4.88,9.94,6.58,16.37,6.57,60.76-.05,121.52-.03,182.28-.04,1.37,0,2.86.22,4.1-.2,3.27-1.13,6.78-2.06,9.56-3.98,5.74-3.96,7.64-10,7.63-16.81-.03-35.58-.02-71.16-.01-106.74ZM173.23,129.01c1.42,0,2.35,0,3.29,0,8.59,0,17.18,0,25.77,0,22.85,0,45.69-.03,68.54.04,2.18,0,3.02-.45,2.96-2.82-.17-6.01-.13-12.02-.02-18.03.04-1.97-.66-2.51-2.53-2.47-4.98.1-9.96.04-14.94.03-8.51-.02-12.74-3.95-13.4-12.44-.63-8.18-6.02-15.4-13.02-17.48-13.27-3.92-25.41,4.54-25.79,18.39-.15,5.48-5.13,11.72-12.04,11.54-4.12-.11-8.24-.01-12.37-.01q-6.44,0-6.44,6.45c0,5.48,0,10.95,0,16.79Z"/>
  <path d="M223.71,229.85c-20.54,0-41.07.03-61.61-.01-8.61-.02-14.36-7.85-11.45-15.66,1.71-4.59,5.22-7.07,10.09-7.59.68-.07,1.37-.05,2.06-.05,40.47,0,80.95,0,121.42,0,6.83,0,11.75,3.79,12.64,9.67,1.1,7.26-4.14,13.55-11.54,13.61-10.83.09-21.65.03-32.48.03-9.71,0-19.42,0-29.13,0Z"/>
  <path d="M223.35,291.77c-20.19,0-40.39-.07-60.58.04-6.41.03-10.46-3.2-12.06-7.42-2.93-7.75,2.31-15.32,10.89-15.94.6-.04,1.2-.02,1.8-.02,40.04,0,80.09,0,120.13,0,4.18,0,8,.93,10.82,4.36,3.02,3.68,3.5,7.85,1.7,12.07-1.69,3.95-4.9,6.32-9.29,6.77-1.28.13-2.57.13-3.86.13-19.85,0-39.7,0-59.55,0Z"/>
</svg>