<?xml version="1.0" encoding="UTF-8"?>
<svg id="Layer_1" xmlns="http://www.w3.org/2000/svg" viewBox="0 0 432.27 403.26">
  <path d="M214.56,380.03c-95.96.46-175.5-78.66-175.81-174.87-.31-97.88,77.82-176.69,175.72-177.25,96.03-.55,175.28,78.47,175.8,175.28.52,97.33-78.02,176.37-175.72,176.84ZM213.78,348.02c79.6.3,144.08-63.8,144.5-143.65.42-78.76-63.92-144.06-142.28-144.39-79.85-.34-144.86,63.45-145.25,142.53-.4,80.24,63.47,145.21,143.03,145.51Z"/>
  <path d="M190.83,228.44c2.75-2.89,5.36-5.73,8.08-8.46,24.75-24.87,49.51-49.74,74.3-74.57,7.33-7.34,17.41-7.22,24.13.14,5.61,6.14,5.74,15.23.27,21.51-.82.94-1.72,1.81-2.6,2.69-30.34,30.4-60.69,60.81-91.04,91.2-8.86,8.87-17.48,8.9-26.3.08-15.09-15.1-30.16-30.24-45.27-45.33-4.37-4.36-6.51-9.46-5.1-15.62,2.84-12.38,17.38-16.75,26.73-7.95,6,5.64,11.68,11.62,17.51,17.45,6.01,6,12.01,12,18.03,18,.17.17.41.28,1.25.86Z"/>
</svg>