<?xml version="1.0" encoding="UTF-8"?>
<svg id="Layer_1" xmlns="http://www.w3.org/2000/svg" viewBox="0 0 478.34 446.46">
  <path d="M265,357.6c-6.42,8.02-4.75,16.4-2.74,24.89,1.14,4.84,2.06,9.76,2.76,14.69.6,4.24-1.96,7.39-5.54,7.2-3.31-.18-5.16-2.06-5.8-5.31-1.43-7.34-2.94-14.66-4.42-21.98-.15-.72-.35-1.43-.59-2.35h-14.44c-1.61,7.96-3.22,16-4.87,24.04-.89,4.36-3.18,6.24-6.73,5.61-3.47-.62-5.41-3.89-4.63-8.11,1.4-7.6,2.54-15.27,4.48-22.73,1.58-6.1-2.27-10.37-3.62-16.17-1.11,1.4-1.7,2.27-2.41,3.03-2.41,2.62-5.45,2.78-8.34.8-18.98-12.99-35.93-28.1-49.03-46.92-.5-.12-.77-.29-.96-.23-15.79,4.92-31.6,9.8-47.35,14.83-5.09,1.63-10.19,3.36-15.04,5.57-17.27,7.9-25.45,22.01-26.82,40.48-.55,7.45-.71,14.92-1.07,22.97-3.64.23-7.41.46-12.21.75.73-10.41.89-20.36,2.21-30.16,2.63-19.42,12.46-34.3,30.19-43.19,6.41-3.21,13.32-5.53,20.17-7.73,13.74-4.42,27.85-7.79,41.3-12.94,9.16-3.51,17.83-8.73,26.02-14.23,8.6-5.78,12.75-14.11,12.65-25.15-.1-10.32-.97-19.28-8.3-27.69-7.4-8.48-10.64-19.6-13.55-30.51-.31-1.18-1.08-2.69-2.06-3.16-12.85-6.11-17.68-17.15-18.04-30.39-.15-5.73,1.57-11.49,2.33-17.26.2-1.54.25-3.18-.04-4.69-3.93-20.56-4.47-40.91,4.07-60.58,6.05-13.95,15.73-24.72,29.33-31.8.97-.5,1.98-1.15,2.63-2,10.48-13.89,24.85-20.97,41.72-22.97,21.43-2.54,42.62-1.06,63.07,6.32,27.38,9.88,42.53,29.93,46.75,58.29,2.72,18.24,2.61,36.53-1.94,54.6-.35,1.41.21,3.16.68,4.64,3.55,11.19,2.99,22.16-1.93,32.78-2.76,5.95-7.34,10.25-13.23,13.26-1.31.67-2.58,2.29-2.97,3.72-3.91,14.37-9.81,27.68-19.63,39.09-.85.99-1.24,2.66-1.28,4.03-.14,5.74.1,11.48-.1,17.21-.21,5.95,1.68,11.07,5.53,15.44,6.45,7.32,14.69,11.98,23.31,16.44,18.57,9.62,38.92,13.65,58.56,19.9,5.3,1.69,10.45,4.13,15.29,6.89,16.35,9.3,25.2,23.82,27.47,42.21,1.14,9.25,1.23,18.64,1.57,27.98.17,4.64-2.34,7.42-6.07,7.4-3.83-.02-5.68-2.52-5.88-7.47-.36-8.71-.47-17.46-1.4-26.12-1.97-18.31-12-30.92-28.99-37.54-8.66-3.37-17.86-5.37-26.74-8.19-10.08-3.2-20.11-6.55-30.09-10.04-2.12-.74-3.22-.62-4.59,1.26-12.85,17.63-28.54,32.28-46.88,44.09-5.17,3.33-6.96,3.09-10.98-1.73-.32-.38-.57-.82-.75-1.07ZM241.18,261.61c4.33-.44,8.67-.83,13-1.33,7.4-.86,12.84-5.78,18.99-9.22,7.08-3.96,12.89-9.37,17.78-15.75,7.74-10.09,12.09-21.7,14.46-34.08.76-3.96,2.57-6.16,6.72-7.39,3.11-.92,6.48-3.16,8.3-5.79,5.7-8.26,5.76-17.53,2.75-26.82-.4-1.24-2.06-2.59-3.39-2.94-6.47-1.71-11.17-5.66-14.11-11.4-2.49-4.84-4.31-10.05-6.23-15.16-2.15-5.7-3.73-11.63-6.21-17.17-2.91-6.52-8.41-10.07-15.57-9.43-7.28.65-14.64,1.59-21.66,3.52-9.57,2.63-18.7,2.7-28.29,0-7.12-2.01-14.63-2.89-22.04-3.51-6.83-.58-12.11,2.83-15.09,9-1.99,4.12-3.3,8.57-4.93,12.87-2.41,6.39-4.45,12.96-7.34,19.13-3.1,6.62-8.39,11.05-15.89,12.34-2.77.48-4.67,2.09-4.62,5,.11,5.82-.05,11.72.88,17.43.98,6.07,4.47,11.12,10.7,12.79,4.99,1.33,7.07,4.16,8.09,8.94,3.53,16.51,10.26,31.63,23.53,42.46,11.51,9.4,23.88,18,40.18,16.51ZM323.21,146.52c.32-1.38.72-2.68.92-4,1.99-12.77,2.19-25.6.67-38.39-2.97-25.11-15.32-43.41-39.66-52.29-18.75-6.84-38.21-8.12-57.87-5.65-14.3,1.79-26.41,7.82-34.6,20.36-.87,1.34-2.59,2.31-4.12,3.01-9.12,4.18-16.17,10.65-21.56,19.02-9.41,14.6-10.52,30.84-9.31,47.51.26,3.55.97,7.06,1.48,10.62,4.53-.86,6.62-2,8.32-5.72,2.38-5.19,4.2-10.63,6.32-15.94,2.35-5.88,4.27-12,7.26-17.54,5.29-9.83,13.99-15.04,25.16-14.31,8.51.56,17.05,1.99,25.33,4.06,7.16,1.79,13.86,1.91,20.91-.15,5.83-1.7,11.85-2.95,17.88-3.71,18.66-2.35,29.63,4.44,36.24,22.02,1.01,2.68,1.79,5.44,2.72,8.14,1.78,5.17,3.39,10.42,5.47,15.47,1.48,3.61,3.79,6.76,8.44,7.5ZM200,258.35c-.06,1.25-.12,1.86-.12,2.48.12,8.61.47,17.24-4.24,25.09-.41.68.43,2.55,1.19,3.43,9.35,10.81,20.83,18.56,34.53,22.65,4.3,1.28,9.2,2.44,13.46,1.65,17.02-3.16,30.96-12.02,42.09-25.22.7-.83.86-2.81.36-3.82-2.52-5.16-3.74-10.53-3.58-16.26.09-3.06.02-6.12.02-9.63-28.13,19.2-55.76,19.58-83.72-.36ZM272.23,348.79c16.36-10.97,30.55-23.95,41.87-39.83-6.19-4.28-12.08-8.35-18.13-12.53-11.63,13.79-26.21,23.23-43.97,28.41,6.92,8.19,13.45,15.92,20.22,23.94ZM231.02,324.84c-17.75-5.35-32.25-14.8-43.82-28.11-5.87,4.07-11.45,7.96-17.23,11.97,11.42,15.65,25.28,28.7,41.16,39.56,6.63-7.81,13.08-15.41,19.88-23.42ZM241.51,329.61c-1.9,2.26-3.6,4.23-5.25,6.26-2.89,3.56-7.57,6.91-8.1,10.81-.56,4.09,2.88,8.73,4.57,13.13.09.23.09.57.25.69.98.7,1.97,1.86,3,1.91,4.34.21,8.69.09,13.2.09,1.91-4.84,3.84-9.55,5.58-14.32.31-.86.2-2.31-.34-2.99-4.18-5.22-8.51-10.31-12.91-15.58Z"/>
</svg>