<?xml version="1.0" encoding="UTF-8"?>
<svg id="Layer_1" xmlns="http://www.w3.org/2000/svg" viewBox="0 0 478.34 446.46">
  <path d="M142.47,138.65c-1.45-9.9-3.39-19.34-4.06-28.88-.46-6.58.13-13.44,1.51-19.9,2.81-13.12,10.99-22.25,23.14-27.89,1.32-.61,3.12-1.38,3.55-2.51,4.65-12.13,14.12-19.33,25.46-23.99,24.8-10.19,50.65-14.05,76.94-7.89,39.67,9.3,68.02,44.9,69.42,85.6.14,4.16-.18,8.37-.65,12.52-.47,4.14-1.4,8.23-2.19,12.68.85.48,1.89,1.1,2.95,1.67,9.77,5.3,14.91,15.39,13.55,26.59-1.19,9.84-8.82,18.69-18.87,21.23-2.88.73-3.58,1.87-3.89,4.67-2.98,27.42-15.58,49.38-37.96,65.55-2.2,1.59-3.18,3.08-2.88,5.8.54,4.93-.1,10.26,4.33,13.84,1.79,1.45,4.02,2.98,6.2,3.24,12.59,1.5,25.38,1.79,37.82,4.04,41.37,7.45,69.79,40.98,70.96,83.23.42,15.34.14,30.69.09,46.04-.02,5.56-2.07,7.52-7.65,7.52-107.39.01-214.79.01-322.18,0-5.48,0-7.69-1.89-7.68-7.06.05-17.72-.44-35.47.57-53.14,2.22-38.8,35.05-72.83,73.69-77.17,11.49-1.29,23.03-2.26,34.55-3.33,4.12-.38,9.18-5.04,9.84-9.23.07-.41,0-.85.11-1.25,1.84-6.95-.53-11.31-6.46-15.91-20.39-15.84-31.36-37.24-33.87-62.94-.2-2.04-.6-3.1-2.9-3.7-11.01-2.86-18.73-11.53-19.79-21.78-1.23-11.81,4.14-21.45,15.01-26.95.49-.25.98-.52,1.34-.71ZM320.38,148.29c-1.32-.26-2.25-.47-3.19-.63-32.12-5.4-63.07-14.9-93.43-26.5-6.75-2.58-13.31-5.75-20.2-7.82-6.74-2.03-12.82.42-15.33,6.1-5.7,12.87-15.36,21.25-28.05,26.66-1.03.44-2.23,2.18-2.17,3.25.92,15.58,1.2,31.27,3.29,46.7,5.01,37.03,35.93,64.7,73.56,66.91,37.05,2.17,71.37-22.11,80.17-58.2,3.17-12.99,3.12-26.77,4.39-40.21.51-5.38.65-10.79.96-16.26ZM349.01,409.8h46.82c0-15.61.83-30.98-.19-46.23-1.68-25.24-14.27-44.42-35.65-57.76-8.62-5.38-18.08-8.67-28.2-9.76-11.74-1.27-23.51-2.35-35.33-3.51-.54,1.84-.95,3.15-1.32,4.47-4.93,17.85-9.83,35.71-14.81,53.55-1.8,6.47-5.81,7.72-11.16,3.6-2.53-1.95-5.02-3.95-7.48-5.89q-5.21,4.17-3.26,9.96c2.31,6.86,4.63,13.72,6.95,20.58,3.53,10.4,7.06,20.79,10.51,30.95h61.4c0-10.38-.02-20.42.02-30.46,0-1.66,0-3.38.37-4.98.71-2.96,2.84-4.5,5.83-4.33,2.96.17,4.93,1.86,5.35,4.91.21,1.51.15,3.06.15,4.59.01,10.02,0,20.03,0,30.3ZM129.24,409.89c0-1.7,0-3.19,0-4.69,0-9.21-.02-18.41.01-27.62.02-4.97,2.04-7.61,5.72-7.65,3.68-.04,5.94,2.69,5.97,7.52.06,9.35.01,18.69.03,28.04,0,1.46.12,2.93.19,4.61,19.42,0,38.37-.09,57.31.09,3.13.03,4.27-1.1,5.18-3.88,5.27-16,10.52-32.02,16.25-47.86,1.68-4.63,1.17-7.63-3.14-10-.1.03-.4.07-.61.23-2.43,1.87-4.83,3.78-7.27,5.63-5.16,3.92-9.17,2.65-10.94-3.56-2.25-7.9-4.38-15.84-6.57-23.75-3.14-11.37-6.28-22.73-9.49-34.32-10.47.94-20.57,2.03-30.7,2.73-36.47,2.52-66.11,31.52-68.65,67.99-.9,12.92-.38,25.93-.5,38.9-.02,2.47,0,4.95,0,7.61h47.19ZM154.57,135.28c9.96-2.94,17.27-9.55,22.63-20.11,4.82-9.5,12.56-14.59,23.23-13.91,4.9.31,9.84,1.78,14.53,3.4,19.84,6.88,39.41,14.6,59.45,20.85,14.18,4.43,28.91,7.09,43.44,10.35,5.95,1.34,6.36,1.16,7.16-4.56.94-6.74,2.06-13.63,1.61-20.35-2.35-34.42-26.38-63.06-59.76-71.97-14.8-3.95-29.64-2.32-44.42-.12-12.06,1.79-23.73,5.01-34.02,11.95-4.83,3.25-9.19,7.12-10.59,12.99-1.03,4.33-3.37,6.55-7.44,8-9.84,3.51-16.55,10.27-18.97,20.6-3.43,14.6-.23,28.74,3.17,42.89ZM239.14,314.45c12.11-13,23.7-25.62,35.55-37.99,2.86-2.98,3.25-5.8,1.87-9.57-24.99,10.64-49.97,10.63-74.83,0-1.55,3.95-1.17,6.97,1.97,9.65,2.32,1.98,4.2,4.46,6.29,6.7,9.59,10.27,19.18,20.54,29.15,31.21ZM230.76,362.44c-5.42,16.05-10.69,31.67-16.02,47.44h48.78c-5.4-15.96-10.69-31.6-16.02-47.36q-8.56,6.69-16.74-.08ZM207.31,340.63c8.01-6.31,15.41-12.15,23.16-18.25-11.9-12.76-23.52-25.23-35.15-37.7-.46.08-.92.16-1.38.24-.15,1.86-.74,3.82-.36,5.56,1.04,4.75,2.48,9.42,3.78,14.11,3.25,11.78,6.51,23.56,9.96,36.04ZM270.52,340.27c.44-.62.79-.93.89-1.3,4.53-16.36,9.09-32.7,13.45-49.11.4-1.5-.57-3.37-1.1-6.08-12.54,13.46-24.16,25.94-35.96,38.61,7.85,6.17,15.26,12,22.73,17.87ZM226.92,340.17c4.37,4.41,8.52,8.6,12.36,12.48,3.96-3.76,8.17-7.76,12.67-12.03-4.34-3.42-8.55-6.74-12.82-10.1-4.44,3.51-8.57,6.78-12.21,9.66ZM146.13,150.17c-6.56,3.37-9.34,8.85-8.28,15.42.84,5.23,4.81,9.41,9.93,10.3-.54-8.46-1.08-16.88-1.65-25.72ZM332.09,150.26c-.55,8.86-1.08,17.34-1.61,26.03,6.43-2.29,9.8-6.63,10.06-12.43.27-6.14-2.43-10.71-8.45-13.6Z"/>
  <path d="M102.05,371.12c0,2.14.14,4.93-.04,7.7-.21,3.23-2.11,5.12-5.34,5.32-3.24.2-5.76-1.51-5.9-4.64-.27-5.95-.17-11.97.42-17.9.3-3.06,2.97-4.63,6.2-4.26,3.25.38,4.95,2.52,5.11,5.63.13,2.48-.26,5-.45,8.15Z"/>
</svg>