<?xml version="1.0" encoding="UTF-8"?>
<svg id="Layer_1" xmlns="http://www.w3.org/2000/svg" viewBox="0 0 478.34 446.46">
  <path d="M42.09,307.88c0-54.39,0-108.79,0-163.18.21-.83.54-1.65.63-2.49,5.11-49.23,38.96-89.63,86.62-102.98,7.5-2.1,15.32-3.07,23-4.56,54.5,0,109,0,163.5,0,.83.21,1.64.54,2.48.63,49.02,4.85,90.11,39.14,103.21,86.45,2.08,7.5,3.07,15.3,4.56,22.96v163.18c-.9,5.25-1.54,10.56-2.73,15.75-12.92,56.48-60.37,94.25-118.4,94.28-47.24.03-94.49.02-141.73-.02-4.12,0-8.25-.2-12.35-.57-49.57-4.42-91.03-38.83-104.31-86.8-2.05-7.39-3.02-15.09-4.48-22.64ZM212.9,150.5c0-9.3.08-18.13-.05-26.96-.04-2.84-.2-5.8-1.03-8.48-4.33-14.04-21.27-17.85-32.33-7.21-16.74,16.09-33.36,32.31-49.95,48.56-8.6,8.42-8.51,20,.17,28.49,16.42,16.06,32.94,32.02,49.37,48.07,6.33,6.18,13.64,8.39,21.91,4.95,8.28-3.45,11.87-10.26,11.9-19.05.03-8.61,0-17.21,0-25.82,0-1.32,0-2.64,0-4.24,1.87,0,3.22,0,4.57,0,17.37,0,34.74,0,52.11,0,18.54,0,33.87,11.07,39.56,28.7,4.07,12.63,4.36,25.57,1.74,38.44-4.56,22.33-19.31,34.03-42.12,34.03-35.36,0-70.73,0-106.09,0-1.37,0-2.75-.04-4.12.05-7.89.47-14.76,5.6-17.27,12.87-2.54,7.36-.31,15.69,5.6,20.76,3.98,3.42,8.65,4.66,13.86,4.65,37.11-.05,74.23,0,111.34-.07,3.73,0,7.51-.29,11.18-.95,26.96-4.84,47.46-18.67,58.94-43.95,10.4-22.9,11.16-46.93,5.35-71.02-9.15-37.94-40.2-61.82-79.26-61.82-16.99,0-33.99,0-50.98,0-1.34,0-2.67,0-4.39,0Z"/>
</svg>