<?xml version="1.0" encoding="UTF-8"?>
<svg id="Layer_1" xmlns="http://www.w3.org/2000/svg" viewBox="0 0 176.93 180.02">
  <defs>
    <style>
      .cls-1 {
        fill: #234789;
      }

      .cls-2 {
        fill: #214487;
      }
    </style>
  </defs>
  <path class="cls-2" d="M137.95,91.09c0,14.42.03,28.84-.01,43.26-.03,8.75-5.55,15.56-13.92,17.37-1.29.28-2.6.24-3.9.24-24.63,0-49.26-.15-73.89.08-9.63.09-18.24-7.21-18.18-18.25.17-28.54.05-57.09.07-85.64,0-1.42.01-2.87.29-4.25,1.73-8.64,8.5-14,17.73-14.07,6.11-.04,12.22-.02,18.34,0,1.16,0,1.95-.19,2.46-1.46,2.83-7.04,8.23-10.89,15.69-11.04,7.45-.15,13.07,3.44,16.14,10.38.77,1.73,1.73,2.15,3.48,2.15,6.58-.02,13.19-.4,19.75.14,9.51.78,15.93,8.02,15.94,17.63.02,14.48,0,28.96,0,43.44ZM128.47,90.81s.06,0,.1,0c0-2.97,0-5.94,0-8.9-.02-11.45-.01-22.91-.06-34.36-.02-5.1-3.27-8.25-8.39-8.27-1.66,0-3.32,0-4.99,0q-2.4-.01-2.4,2.48c0,3.5.03,7,.03,10.51,0,3.9-2.08,5.89-5.93,5.84-15.91-.23-31.81-.23-47.72,0-3.83.05-5.95-2.04-5.92-5.89.03-3.74-.02-7.48.04-11.22.02-1.27-.29-1.84-1.69-1.75-1.89.12-3.8.02-5.7.04-5.11.05-8.33,3.21-8.34,8.33-.02,28.97,0,57.94,0,86.91,0,.77.02,1.53.24,2.29,1.11,3.88,4,5.84,8.85,5.84,24.58,0,49.16.07,73.73-.08,4.96-.03,7.9-3.06,8.12-7.26.24-4.57.04-9.13.03-13.7-.03-10.27,0-20.54,0-30.8ZM82.91,48.62c6.28,0,12.57-.02,18.85.02,1.23,0,1.7-.37,1.65-1.63-.08-2.13-.06-4.27,0-6.4.02-1-.35-1.39-1.34-1.37-1.66.04-3.32.03-4.98.03-4.26-.01-5.6-1.16-6.21-5.33-.62-4.23-3.36-6.9-7.33-7.14-3.98-.24-7.07,1.92-8.1,5.72-.18.68-.21,1.4-.31,2.1-.45,3.03-2.44,4.7-5.48,4.64-1.54-.03-3.08,0-4.62.02-1.51.02-2.31.79-2.33,2.3-.03,1.84.07,3.68-.05,5.51-.08,1.28.36,1.56,1.58,1.55,6.22-.06,12.45-.03,18.67-.03Z"/>
  <path class="cls-1" d="M82.93,104.99c7.9,0,15.79,0,23.69,0,.83,0,1.67.05,2.47.21,2.12.42,3.65,2.3,3.66,4.41.02,2.36-1.35,4.14-3.6,4.62-.63.13-1.29.18-1.94.18-16.03.02-32.06.04-48.09.05-3.05,0-4.84-1.02-5.6-3.16-.94-2.64.49-5.37,3.25-6.08.79-.2,1.64-.23,2.47-.23,7.9-.02,15.79,0,23.69,0Z"/>
  <path class="cls-2" d="M82.95,89.34c-8.19,0-16.38.03-24.57-.01-3.89-.02-6.23-3.26-4.75-6.55.97-2.16,2.84-2.83,5.1-2.83,13.59.02,27.18,0,40.77,0,2.73,0,5.46-.04,8.19.01,2.75.05,4.69,1.61,4.99,3.89.39,2.95-1.47,5.25-4.45,5.45-.71.05-1.42.02-2.14.02-7.71,0-15.43,0-23.14,0Z"/>
</svg>