<?xml version="1.0" encoding="UTF-8"?>
<svg id="Layer_1" xmlns="http://www.w3.org/2000/svg" viewBox="0 0 176.93 180.02">
  <defs>
    <style>
      .cls-1 {
        fill: #e49679;
      }
    </style>
  </defs>
  <path class="cls-1" d="M49.92,117.43c1.51-3.04,2.92-5.86,4.32-8.69,5.51-11.2,11.01-22.4,16.51-33.61,4.08-8.31,8.17-16.63,12.21-24.96.45-.93.99-1.28,2.01-1.24,1.85.08,3.71.11,5.56,0,6.34-.35,9.01,3.69,9.67,8.41,1.57,11.19,2.98,22.4,4.47,33.59,1.16,8.73,2.35,17.45,3.55,26.35.68-.63.8-1.37,1.02-2.02,5.71-16.17,11.39-32.34,17.09-48.51,2.61-7.39,5.25-14.77,7.83-22.18.31-.9.72-1.19,1.65-1.19,6.1.04,12.2.05,18.31,0,1.29-.01,1.34.4.94,1.45-11.56,30.57-23.09,61.15-34.68,91.71-1.8,4.75-4.62,8.7-9.77,10.39-1.41.46-2.85.68-4.31.73-2.78.09-5.56.02-8.35.06-.77.01-1.12-.21-1.23-1.04-1.46-11.05-2.93-22.11-4.43-33.15-1.41-10.42-2.86-20.84-4.29-31.25-.27-1.97-.51-3.93-.76-5.9-.65-.08-.7.4-.85.71-8.66,17.58-17.31,35.17-25.96,52.76-2.73,5.56-5.48,11.1-8.17,16.68-.42.86-.87,1.26-1.87,1.21-3.16-.16-6.34.2-9.5-.24-6.06-.84-8.73-3.8-8.91-9.95-.14-4.63-.23-9.27-.34-13.9-.2-8.63-.4-17.26-.61-25.89-.19-7.85-.38-15.7-.57-23.55-.2-8.39-.4-16.77-.61-25.16-.04-1.51-.11-3.02-.21-4.53-.05-.78.16-1.14,1.04-1.13,6.1.03,12.2.04,18.31,0,1.12,0,1.12.57,1.11,1.37-.09,8.64-.18,17.27-.23,25.91-.05,9.23-.05,18.45-.11,27.68-.03,5.76-.13,11.51-.18,17.27,0,.51-.16,1.05.32,1.82Z"/>
</svg>