<?xml version="1.0" encoding="UTF-8"?>
<svg id="Layer_1" xmlns="http://www.w3.org/2000/svg" viewBox="0 0 176.93 180.02">
  <defs>
    <style>
      .cls-1 {
        fill: #f6851f;
      }
    </style>
  </defs>
  <path class="cls-1" d="M28.1,82.83c0-13.21-.12-26.42.04-39.62.13-10.85,5.07-19.13,14.31-24.78,4.24-2.59,8.97-3.75,13.9-3.79,11.34-.08,22.69-.03,34.03-.02,2.21,0,4.01.95,5.56,2.5,9.86,9.9,19.74,19.77,29.6,29.67,5.05,5.07,10.07,10.17,15.09,15.26,1.34,1.36,1.97,3.08,1.97,4.95.03,14.2.03,28.39,0,42.59,0,1.01.3,1.4,1.27,1.72,10.3,3.39,16.55,10.53,18.3,21.14,2.28,13.85-7.34,27.35-21.2,29.59-9.41,1.52-17.34-1.22-23.79-8.19-.99-1.07-2.03-1.49-3.48-1.49-17.47.04-34.94.07-52.41,0-4.09-.02-8.21.12-12.24-.95-7.35-1.95-12.68-6.49-16.7-12.77-2.45-3.82-3.9-7.99-3.99-12.54-.14-7.42-.19-14.83-.23-22.25-.04-7,0-14.01,0-21.01ZM85.44,25.88h-1.66c-8.64,0-17.28,0-25.92,0-1.17,0-2.35.08-3.52.21-8.34.96-14.92,8.2-14.93,16.61-.04,27.29-.03,54.59-.01,81.88,0,.98.13,1.98.35,2.93,1.96,8.18,8.78,13.57,17.21,13.58,17.4.02,34.79.02,52.19.02.44,0,.89-.04,1.36-.06,0-.69.06-1.26,0-1.82-.51-3.96-.08-7.83,1.31-11.55,3.15-8.48,9.08-14.05,17.81-16.56,1.04-.3,1.76-.68,1.75-1.97-.03-12.07-.03-24.13,0-36.2,0-.93-.33-1.16-1.2-1.16-5.48.03-10.96.03-16.44,0-1.29,0-2.6-.03-3.86-.24-9.26-1.58-16.28-6.47-20.95-14.6-2.66-4.64-3.4-9.79-3.46-15.05-.05-4.83-.01-9.67-.01-14.5,0-.45,0-.9,0-1.53ZM115.24,136.31c.17,11.59,9.29,21.15,21.13,21.17,11.69.03,21.04-9.41,21.11-21.01.07-11.67-9.44-21.22-20.96-21.3-11-.07-21.07,8.84-21.29,21.14ZM122.65,60.46c-8.7-8.65-17.33-17.21-25.93-25.76,0,2.88-.03,5.92,0,8.96.09,6.86,4.54,13.22,10.92,15.71,4.89,1.91,9.94,1.28,15,1.09Z"/>
  <path class="cls-1" d="M85.37,100.58c-7.69,0-15.38.02-23.07-.01-2.35-.01-4.09-1.15-5-3.32-1.69-3.98,1.1-7.94,5.58-7.94,8.22-.01,16.44,0,24.67.01,6.74,0,13.48,0,20.21,0,3.01,0,5.21,1.58,5.94,4.21.97,3.47-1.67,7.04-5.26,7.05-7.69.02-15.38,0-23.07,0h0Z"/>
  <path class="cls-1" d="M85.29,112.36c7.57,0,15.14,0,22.71,0,2.63,0,4.78,1.45,5.6,3.73,1.32,3.65-1.38,7.48-5.4,7.5-10.27.05-20.54.02-30.82.03-4.95,0-9.89.02-14.84,0-2.65-.01-5.18-2.05-5.65-4.48-.51-2.66.81-5.22,3.36-6.32.71-.3,1.54-.44,2.31-.45,7.57-.03,15.14-.02,22.71-.02Z"/>
  <path class="cls-1" d="M68.26,77.53c-2.09,0-4.18.06-6.27-.01-3.04-.11-5.21-2.56-5.15-5.67.06-3.05,2.31-5.38,5.31-5.41,3.95-.03,7.91-.03,11.86,0,3.07.03,5.53,2.53,5.51,5.53-.02,3.08-2.34,5.49-5.44,5.57-1.94.05-3.88,0-5.82,0,0,0,0,0,0-.01Z"/>
  <path class="cls-1" d="M149.28,144.02c-.68,1.11-1.28,2.1-1.93,3.15-4.27-2.63-8.48-5.19-12.64-7.84-.44-.28-.79-1.06-.8-1.62-.06-4.45-.02-8.89-.05-13.34,0-.8.3-1.04,1.08-1.05,2.64-.03,2.64-.06,2.64,2.62,0,3.19.04,6.39-.02,9.58-.02,1.06.41,1.68,1.28,2.19,3.14,1.85,6.25,3.74,9.38,5.62.32.19.63.41,1.06.68Z"/>
</svg>