<?xml version="1.0" encoding="UTF-8"?>
<svg id="Layer_1" xmlns="http://www.w3.org/2000/svg" viewBox="0 0 176.93 180.02">
  <defs>
    <style>
      .cls-1 {
        fill: #bb4226;
      }
    </style>
  </defs>
  <path class="cls-1" d="M88.64,149.56c-20.11,0-40.21,0-60.32,0-6.91,0-12.12-4.26-13.41-11.05-.62-3.24.05-6.34,1.76-9.17,11.56-19.17,23.13-38.32,34.69-57.49,8.47-14.05,16.91-28.11,25.38-42.15,2.69-4.45,6.53-7.08,11.87-7.05,4.65.03,8.39,2.04,10.85,5.91,4.34,6.83,8.48,13.79,12.67,20.73,15.93,26.44,31.8,52.91,47.81,79.3,4.3,7.08,2.2,14.42-2.88,18.33-2.45,1.88-5.25,2.66-8.34,2.65-13.64-.03-27.28-.01-40.92-.01-6.38,0-12.77,0-19.15,0ZM88.54,140.02s0-.03,0-.04c19.77,0,39.55,0,59.32,0,.62,0,1.25-.03,1.85-.14,2.18-.38,3.33-2.12,2.85-4.27-.16-.73-.52-1.38-.91-2.02-17.4-28.87-34.8-57.75-52.2-86.62-2.62-4.35-5.25-8.71-7.97-13-1.42-2.25-4.05-2.31-5.73-.26-.6.73-1.1,1.55-1.59,2.36-10.34,17.15-20.68,34.3-31.02,51.45-9.3,15.42-18.56,30.85-27.94,46.22-1.94,3.18-.28,6.46,3.52,6.32.33-.01.66,0,.99,0,19.61,0,39.21,0,58.82,0Z"/>
  <path class="cls-1" d="M82.71,85.67c-.19-5.59-.37-11.18-.57-16.77-.08-2.29.13-4.44,2.41-5.69,2.58-1.42,5.22-1.51,7.81-.06,1.8,1.01,2.52,2.69,2.51,4.68-.04,6.38-.31,12.76-.58,19.13-.23,5.34-.31,10.68-.58,16.02-.23,4.45-5.08,6.7-8.8,4.16-1.07-.73-1.5-1.8-1.54-3.09-.15-4.97-.33-9.94-.5-14.91-.04-1.16-.12-2.32-.18-3.47.01,0,.03,0,.04,0Z"/>
  <path class="cls-1" d="M95.38,120.97c.02,3.67-3.1,6.91-6.67,6.93-3.78.03-6.82-3.01-6.85-6.82-.03-3.89,2.89-6.87,6.74-6.88,3.68-.01,6.76,3.06,6.78,6.77Z"/>
</svg>