<?xml version="1.0" encoding="UTF-8"?>
<svg id="Layer_1" xmlns="http://www.w3.org/2000/svg" viewBox="0 0 478.34 446.46">
  <path d="M243.49,415.05c-26.87-1.02-49.53-1.62-72.17-2.85-11.05-.6-21.78-3.41-31.72-8.52-18.75-9.65-28.99-25.86-32.67-45.83-3.24-17.57-5.16-35.46-6.54-53.29-3.1-40.03-5.5-80.1-8.18-120.16-.65-9.63-1.37-19.26-1.91-28.9-.48-8.66,5.79-15.71,14.13-16.15,7.83-.41,14.62,5.75,15.19,14.09,2.49,36.39,4.68,72.79,7.4,109.16,2.07,27.64,4.75,55.23,7.21,82.84.19,2.12.74,4.22,1.25,6.3,5.01,20.25,15.33,29.18,37.32,31.03,14.18,1.19,28.45,1.79,42.68,1.83,26.36.07,52.72-.21,79.07-.9,7.88-.2,15.83-1.73,23.54-3.53,11.11-2.59,18.44-9.87,22.24-20.61,5.17-14.62,6.21-29.95,7.3-45.21,3.11-43.71,6-87.44,8.98-131.17.67-9.78,1.27-19.57,1.99-29.35.64-8.69,7.31-14.93,15.29-14.46,8.51.5,14.65,7.71,14.04,16.68-3.63,53.97-7.06,107.95-11.1,161.89-1.08,14.45-2.95,29.03-6.35,43.09-7.13,29.52-26.57,46.99-56.83,50.12-24.64,2.55-49.5,2.84-70.14,3.92Z"/>
  <path d="M238.93,119.75c-55.03,0-110.06,0-165.09,0-8.73,0-15.16-5.12-16.04-12.63-1.1-9.39,5.37-16.73,15.06-16.77,19.01-.09,38.02-.02,57.02-.03,13.79,0,22.1-5.98,26.45-19,1.17-3.48,2.32-6.97,3.57-10.42,6.48-17.87,22.43-29.3,41.44-29.39,25.14-.12,50.28-.12,75.42,0,19.27.09,35.07,11.47,41.65,29.72,1.45,4.03,2.78,8.11,4.22,12.14,3.79,10.58,12.55,16.9,23.76,16.94,19.77.07,39.55-.03,59.32.05,6.9.03,12.68,4.49,14.4,10.74,1.67,6.05-.56,12.94-6.12,16-3.05,1.68-6.93,2.55-10.44,2.56-50.58.16-101.17.11-151.76.11-4.29,0-8.58,0-12.88,0ZM180.96,89.96h116.31c-2.32-6.7-4.39-13.09-6.75-19.37-2.34-6.24-7.07-9.62-13.72-9.64-25.13-.1-50.26-.1-75.4,0-6.64.03-11.37,3.43-13.71,9.66-2.36,6.28-4.43,12.67-6.74,19.35Z"/>
  <path d="M214.35,298.46c.46,9.94-4.88,16.68-12.96,17.36-8.58.72-15.3-4.74-16.26-13.84-2.67-25.43-5.11-50.89-7.63-76.34-.68-6.86-1.48-13.71-1.94-20.58-.6-9,4.87-15.76,12.96-16.44,8.81-.73,15.32,4.83,16.33,14.28,1.67,15.68,3.17,31.39,4.72,47.09,1.63,16.46,3.24,32.92,4.77,48.47Z"/>
  <path d="M302.64,206.37c-2.23,22.35-4.57,45.82-6.9,69.29-.83,8.38-1.64,16.77-2.47,25.15-.8,8.08-5.36,13.71-12.04,14.88-9.61,1.68-17.98-5.3-17.37-15.11.71-11.46,2.04-22.88,3.17-34.31,2.03-20.57,4.17-41.14,6.15-61.72.86-8.97,5.36-14.82,12.58-15.85,10.03-1.44,17.46,5.83,16.88,17.67Z"/>
</svg>