<?xml version="1.0" encoding="UTF-8"?>
<svg id="Layer_1" xmlns="http://www.w3.org/2000/svg" viewBox="0 0 478.34 446.46">
  <path d="M398.51,420.76H126.41c-2.81-.48-5.62-1-8.45-1.45-45.81-7.21-84.33-45.69-88.45-95.91-3.75-45.85,22.91-89.46,66.15-106.54,8.76-3.46,18.12-5.41,27.6-8.17v-4.03c0-49.25,0-98.5,0-147.76,0-22.65,14.9-37.54,37.55-37.55,58.41,0,116.82.04,175.22-.07,5.35,0,9.46,1.65,13.23,5.44,24.68,24.84,49.44,49.6,74.29,74.27,3.89,3.86,5.61,8.06,5.59,13.57-.12,51.47-.07,102.95-.07,154.42,0,39.19.08,78.39-.04,117.58-.05,15.62-7.41,26.86-21.64,33.37-2.81,1.29-5.92,1.9-8.9,2.82ZM327.15,42.88h-4.38c-54.1,0-108.19,0-162.29,0-9.14,0-13.68,4.56-13.68,13.74,0,49.64,0,99.29,0,148.93v4.16c19.46,2.42,36.56,9.3,51.93,20.62,1.81,1.33,4.44,2.18,6.69,2.19,51.22.12,102.44.09,153.66.09,1.31,0,2.62-.06,3.92.03,6.06.4,10.85,5.18,11.17,11.1.32,5.89-3.98,11.25-9.94,12.22-1.53.25-3.13.16-4.69.16-43.77,0-87.55,0-131.32,0h-5.19c9.64,14.78,15.17,30.2,17.24,47.04,3.2,0,6.06,0,8.91,0,37.24,0,74.48.03,111.72-.03,5.65,0,10,1.99,12.32,7.25,3.56,8.08-2.49,16.28-11.96,16.29-38.81.03-77.61.01-116.42.01h-4.55c-3.69,28.56-16.54,51.67-38.59,70.56,2.26,0,3.43,0,4.6,0,61.67,0,123.35,0,185.02,0,9.92,0,14.25-4.37,14.25-14.36,0-85.7,0-171.4,0-257.1v-4.5c-1.84,0-3.25,0-4.66,0-20.25,0-40.51.02-60.76-.01-8.14-.01-12.96-4.78-12.98-12.86-.04-13.06-.01-26.13-.01-39.19,0-8.6,0-17.21,0-26.34ZM134.9,232.61c-45.32.06-82.2,37.02-82.19,82.35.02,45.31,36.96,82.25,82.27,82.28,45.48.03,82.5-37.06,82.39-82.56-.11-45.3-37.12-82.13-82.47-82.07ZM351,61.06v36.49h36.48c-12.16-12.16-24.42-24.42-36.48-36.49Z"/>
  <path d="M276.13,162.05c28.47,0,56.93-.03,85.4.02,9.19.01,15.11,8.18,11.73,16.16-2.03,4.79-5.85,7.26-11.05,7.32-7.18.09-14.36.03-21.55.03-49.36,0-98.72,0-148.08-.01-1.69,0-3.43.06-5.06-.29-5.95-1.29-9.95-6.83-9.31-12.68.67-6.05,5.64-10.5,12.12-10.51,25.99-.05,51.97-.02,77.96-.02,2.61,0,5.22,0,7.83,0Z"/>
  <path d="M134.8,331.55c-8.98,9.07-17.53,17.88-26.28,26.47-7.06,6.92-17.72,4.19-20.12-5.02-1.2-4.62.37-8.46,3.64-11.73,7.76-7.76,15.52-15.52,23.27-23.28.91-.91,1.78-1.87,2.89-3.04-1.05-1.12-1.97-2.17-2.95-3.16-7.66-7.67-15.36-15.31-22.98-23.01-5.38-5.44-5.67-12.57-.83-17.43,4.84-4.86,12-4.62,17.43.78,8.6,8.56,17.1,17.23,27.14,27.37,1.1-1.93,1.73-3.8,2.97-5.07,7.48-7.66,15.02-15.28,22.7-22.74,7.03-6.83,17.78-3.92,20.04,5.31,1.18,4.8-.7,8.65-4.06,11.99-8.52,8.46-17.02,16.96-25.86,25.78,1.05,1.13,1.95,2.17,2.92,3.14,7.84,7.86,15.79,15.62,23.51,23.59,6.85,7.07,4.02,17.75-5.19,20.07-4.62,1.17-8.45-.46-11.72-3.73-7.76-7.76-15.51-15.52-23.28-23.27-.91-.9-1.87-1.75-3.24-3.03Z"/>
</svg>