<?xml version="1.0" encoding="UTF-8"?>
<svg id="Layer_1" xmlns="http://www.w3.org/2000/svg" viewBox="0 0 478.34 446.46">
  <path d="M228.5,40.05c26.37.26,51.63,5.53,75.62,16.57,13.24,6.09,18.71,18.55,13.45,30.79-5.33,12.39-18.54,16.94-32.11,11.24-53.37-22.42-103.53-16.46-147.39,21.26-42.65,36.68-57.53,84.71-43.15,139.04,14.43,54.5,51.37,88.37,106.57,100.09,78.24,16.61,155.55-40.83,163.36-120.19.47-4.82.76-9.66.91-14.5.43-13.77,10.31-23.58,23.61-23.31,12.89.26,22.58,10.47,22.39,23.99-.51,37.41-10.85,71.9-32.29,102.61-30.26,43.34-71.7,69.65-123.96,77.98-86.97,13.86-172.91-38.4-201.44-121.98C19.36,181.94,78.11,72.64,182.25,46.05c15.01-3.83,30.69-5.02,46.06-7.43.07.48.13.95.2,1.43Z"/>
  <path d="M227.61,238.46c2.04-2.78,3.11-4.73,4.62-6.25,53.67-53.73,107.4-107.39,161.05-161.14,7.05-7.06,15.06-10.32,24.86-7.41,14.96,4.44,20.99,22.78,11.71,35.4-1.58,2.15-3.55,4.05-5.45,5.95-59.15,59.16-118.31,118.32-177.47,177.47-13.55,13.55-25.35,13.51-38.97-.1-21.58-21.58-43.23-43.09-64.72-64.77-10.99-11.09-9.2-28.14,3.54-36.17,9.32-5.87,20.59-4.48,29.01,3.87,15.81,15.67,31.52,31.44,47.23,47.22,1.38,1.39,2.42,3.11,4.58,5.92Z"/>
</svg>