<?xml version="1.0" encoding="UTF-8"?>
<svg id="Layer_1" xmlns="http://www.w3.org/2000/svg" viewBox="0 0 478.34 446.46">
  <path d="M394.17,223.17c0,35.34.06,70.68-.02,106.02-.08,34.27-22.8,62.54-56.29,69.85-5.23,1.14-10.71,1.49-16.08,1.5-58.21.1-116.42.13-174.63.04-41.56-.06-72.35-31.05-72.37-72.66-.02-40.05.06-80.11-.07-120.16-.02-6.69,2.24-11.99,6.93-16.67,46.21-46.11,92.36-92.27,138.47-138.48,4.58-4.59,9.74-6.84,16.29-6.81,28.55.14,57.1-.02,85.65.08,41.33.14,72.06,31.09,72.1,72.5.03,34.93,0,69.85,0,104.78ZM110.53,223.24c-.09,1.42-.18,2.25-.18,3.07,0,34.24-.02,68.47.02,102.71,0,2.48.12,5.02.62,7.44,3.62,17.61,17.96,28.78,37.01,28.79,57.66.03,115.32.04,172.98,0,22.56-.02,37.61-15,37.62-37.5.04-69.58.04-139.16,0-208.74-.01-22.82-14.96-37.74-37.76-37.78-21.35-.04-42.69-.01-64.04,0-1.46,0-2.92.14-4.66.23v5.01c0,21.07.02,42.14-.02,63.2,0,3.88.04,7.8-.52,11.62-5.4,36.78-34.54,61.88-71.78,61.94-21.48.03-42.97,0-64.45,0h-4.85ZM136.73,187.46c.44.07.95.21,1.46.21,14.83,0,29.66.23,44.48-.12,17.4-.42,32.28-13.6,33.48-30.92,1.11-16.13.45-32.39.54-48.59,0-.19-.32-.38-.23-.28-26.51,26.51-53.03,53.01-79.73,79.7Z"/>
  <path d="M252.15,286.08c0-7.92,0-15.38,0-22.84,0-13.3-.1-26.6.04-39.89.09-9.26,5.67-16.1,14.25-18.01,7.5-1.67,15.73,2.04,19.1,9.21,1.36,2.89,2.05,6.36,2.08,9.57.19,19.25.09,38.51.09,57.76v3.97c.31.16.61.32.92.48,5.97-6.07,11.85-12.25,17.95-18.19,6.85-6.68,17.08-6.97,24.1-.91,7.94,6.85,8.41,18.32.76,26.14-10.85,11.09-21.9,21.98-32.87,32.95-5.09,5.09-10.12,10.25-15.3,15.26-8.23,7.96-18.48,7.91-26.56-.13-15.8-15.73-31.57-31.51-47.31-47.3-7.88-7.91-8.28-18.6-1.06-25.92,7.24-7.35,18.17-6.92,26.21,1.06,5.41,5.36,10.79,10.76,16.19,16.13.17.17.47.23,1.41.67Z"/>
</svg>