<?xml version="1.0" encoding="UTF-8"?>
<svg id="Layer_1" xmlns="http://www.w3.org/2000/svg" viewBox="0 0 478.34 446.46">
  <path d="M418.4,341.87c-1.41,5.84-2.41,11.82-4.31,17.5-10.7,31.87-40.33,53.56-73.87,53.64-73.92.17-147.83.07-221.75.05-9.49,0-16.59-6.86-16.59-15.81,0-8.74,6.94-15.59,16.22-15.86,4.32-.12,8.65-.03,12.98-.03,68.97,0,137.94.02,206.92-.01,22.15-.01,40.42-12.98,46.49-33.31,1.46-4.89,2.11-10.19,2.12-15.31.13-73.04.13-146.07.07-219.11-.03-28.19-20.48-48.53-48.75-48.54-72.43-.04-144.87.02-217.3-.12-3.69,0-7.7-.82-10.98-2.44-5.41-2.67-7.88-7.8-7.69-13.79.2-6.3,3.35-10.98,9.03-13.85,1.08-.54,2.19-1.02,3.29-1.53,77.64,0,155.28,0,232.92,0,.68.23,1.35.57,2.05.66,31.9,4.11,57.87,26.63,66.3,57.64,1.15,4.24,1.92,8.6,2.86,12.9v237.32Z"/>
  <path d="M269.16,238.97c-2.22,0-3.65,0-5.07,0-69.23,0-138.45,0-207.68,0-9.43,0-15.49-4.33-17.4-12.34-2.16-9.08,4.52-18.33,13.83-19.06,1.72-.14,3.46-.11,5.19-.11,68.61,0,137.22,0,205.83,0,1.47,0,2.93,0,5.35,0-1.38-1.48-2.21-2.42-3.1-3.31-10.92-10.93-21.88-21.83-32.76-32.79-4.69-4.72-6.15-10.41-3.94-16.69,2.15-6.14,6.75-9.67,13.17-10.5,5.71-.73,10.24,1.71,14.22,5.71,16.65,16.74,33.37,33.41,50.08,50.09,3.85,3.84,7.76,7.61,11.65,11.41,6.77,6.62,6.87,16.84.2,23.48-20.67,20.58-41.33,41.17-62.02,61.74-6.05,6.02-13.25,7.38-19.87,3.84-9.43-5.04-11.32-17.36-3.64-25.18,10.91-11.11,22-22.05,33.01-33.06.83-.83,1.6-1.73,2.96-3.22Z"/>
</svg>