<?xml version="1.0" encoding="UTF-8"?>
<svg id="Layer_1" xmlns="http://www.w3.org/2000/svg" viewBox="0 0 176.93 180.02">
  <defs>
    <style>
      .cls-1 {
        fill: #214487;
      }
    </style>
  </defs>
  <path class="cls-1" d="M154.6,60.87c-.22.91-.42,1.82-.65,2.72-1.05,4.1-3.2,7.55-6.19,10.53-11.1,11.06-22.16,22.14-33.24,33.22-14.18,14.18-28.38,28.34-42.53,42.56-2.01,2.02-4.24,2.96-7.12,2.94-11.58-.08-23.15-.03-34.73-.04-4.8,0-7.79-3-7.79-7.81,0-11.79.02-23.58-.02-35.37,0-2.39.8-4.32,2.48-6,25.54-25.52,51.07-51.05,76.6-76.58,3.42-3.42,7.51-5.53,12.31-6.23.2-.03.38-.16.58-.24,1.72,0,3.44,0,5.17,0,.24.08.47.2.72.24,4.7.69,8.74,2.7,12.1,6.03,5.37,5.32,10.71,10.67,16.03,16.03,2.72,2.73,4.59,5.97,5.54,9.72.26,1.03.49,2.07.73,3.11v5.17ZM36.93,138.06c.38.06.63.13.88.13,8.14,0,16.27.02,24.4-.03.52,0,1.15-.35,1.53-.73,24.61-24.57,49.2-49.16,73.79-73.75,3.37-3.38,3.36-7.61.02-10.96-5.01-5.03-10.03-10.05-15.07-15.06-3.41-3.4-7.63-3.38-11.05.03-24.53,24.52-49.06,49.06-73.61,73.57-.63.62-.91,1.24-.91,2.14.03,7.79.02,15.58.02,23.37,0,.42,0,.84,0,1.29Z"/>
  <path class="cls-1" d="M124.29,152.8c-7.31,0-14.63.02-21.94,0-3.55-.01-6.69-2.7-7.14-6.06-.52-3.84,1.62-7.25,5.25-8.22.9-.24,1.87-.3,2.81-.3,13.98-.02,27.97-.02,41.95,0,4.1,0,6.86,1.9,7.86,5.36,1.31,4.55-2.09,9.2-6.84,9.23-7.31.04-14.63.01-21.94.01Z"/>
</svg>