<?xml version="1.0" encoding="UTF-8"?>
<svg id="Layer_1" xmlns="http://www.w3.org/2000/svg" viewBox="0 0 232.83 222.62">
  <defs>
    <style>
      .cls-1 {
        fill: #fb8500;
      }
    </style>
  </defs>
  <path class="cls-1" d="M59.68,175.97l-7.48-7.03c-.8-.95-1.6-1.9-2.4-2.85-12.11-14.19-19.27-30.54-20.99-49.13-1.89-20.39,2.72-39.24,13.93-56.42,1.83-2.8,3.88-5.46,5.82-8.19l7.03-7.48c.45-.33.92-.65,1.36-1,3.02-2.41,5.91-5.03,9.09-7.21,17.79-12.24,37.54-17.38,58.97-15.07,26.33,2.83,47.36,15.26,62.65,36.85,12.47,17.61,17.48,37.44,15.35,58.91-2.28,22.96-12.27,42.15-29.58,57.35-13.97,12.27-30.4,19.28-48.94,21.03-20.46,1.93-39.38-2.67-56.62-13.92-2.8-1.83-5.46-3.88-8.19-5.82ZM60.82,56.81c-28.53,30.35-27.02,78.43,3.35,106.93,30.35,28.48,78.23,27.02,106.81-3.27,28.57-30.27,27.12-78.35-3.23-106.93-30.32-28.56-78.39-27.09-106.93,3.27Z"/>
  <path class="cls-1" d="M137.95,93.92c-.46.48-.91.97-1.37,1.45-14.25,15.17-28.5,30.35-42.75,45.52-.58.62-1.18,1.24-1.84,1.78-2.32,1.91-5.62,1.79-7.81-.26-2.19-2.05-2.53-5.36-.76-7.77.54-.73,1.16-1.41,1.78-2.07,14.21-15.14,28.42-30.27,42.63-45.4.46-.49.91-.97,1.65-1.76-1-.01-1.58-.04-2.17-.02-9.8.3-19.61.67-29.42.84-1.6.03-3.42-.49-4.76-1.35-2.11-1.34-2.69-3.61-2.07-6.05.6-2.38,2.19-3.82,4.57-4.34.77-.17,1.59-.18,2.38-.2,14.76-.47,29.53-.92,44.29-1.38,5.2-.16,7.44,1.94,7.6,7.14.47,14.88.92,29.76,1.4,44.63.08,2.47-.39,4.65-2.59,6.13-3.63,2.46-8.51.41-9.26-3.9-.12-.67-.13-1.36-.15-2.04-.31-9.63-.61-19.27-.9-28.9-.02-.62.12-1.24.19-1.86-.22-.07-.43-.13-.65-.2Z"/>
</svg>